<svg version="1.1" id="dog" xmlns="http://www.w3.org/2000/svg" xmlns:xlink="http://www.w3.org/1999/xlink" viewBox="0 0 612 612">
<g>
	<path d="M598.895,170.19c14.855-26.849,14.423-53.386,11.447-70.919c-2.337-13.793-7.183-26.417-13.644-36.646
		C586.525,46.5,576.069,43.73,569.091,43.73H464.628c-16.761-7.084-39.303-7.474-69.928-9.911
		c-45.564-3.627-86.957-3.974-88.7-3.974c-1.743,0-43.135,0.503-88.701,4.13c-30.625,2.437-53.167,2.671-69.928,9.755H42.909
		c-6.978,0-17.434,2.77-27.607,18.894C8.841,72.86,3.996,85.789,1.658,99.582c-2.976,17.533-3.408,43.922,11.455,70.764
		c13.099,23.682,35.066,41.959,65.373,54.612c-3.039,6.397-6.503,12.638-10.463,18.695c-17.25,26.396-30.469,56.978-37.227,86.137
		c-8.529,36.823-7.12,70.459,4.201,99.999c8.834,23.053,23.668,43.065,44.078,59.493c20.82,16.754,47.698,29.888,79.952,39.111
		c9.762,11.448,52.246,53.762,146.968,53.762c94.722,0,137.213-42.313,146.968-53.762c32.261-9.216,59.139-22.364,79.951-39.111
		c20.417-16.428,35.244-36.448,44.085-59.5c11.32-29.533,12.73-63.184,4.201-100.007c-6.759-29.158-19.978-59.755-37.228-86.157
		c-3.96-6.057-7.424-12.341-10.463-18.738C563.828,212.227,585.789,193.872,598.895,170.19z M513.006,107.488h17.484
		c2.486,7.084,5.752,14.402,3.549,24.823c-2.097,9.911-8.558,18.207-19.24,24.143c-0.964-8.048-1.517-16.131-1.793-23.031
		C512.631,124.178,512.709,114.572,513.006,107.488z M484.896,203.421c-2.841,3.684-7.475,6.475-12.717,7.672
		c-3.06,0.694-6.595,1.069-10.222,1.069l0,0c-11.753,0-18.724-3.613-19.871-5.249c0.007-1.261,1.579-5.271,6.588-10.152
		c5.179-5.051,12.191-9.152,17.853-10.442c1.862-0.425,3.74-0.638,5.582-0.638c7.672,0,14.098,3.755,15.273,8.919
		C488.247,198.356,486.192,201.743,484.896,203.421z M124.561,194.595c1.176-5.171,7.602-8.919,15.273-8.919
		c1.842,0,3.727,0.212,5.583,0.638c5.667,1.289,12.673,5.391,17.852,10.442c5.058,4.931,6.617,8.968,6.595,10.145
		c-1.119,1.629-8.09,5.263-19.878,5.263c-3.627,0-7.162-0.368-10.223-1.069c-5.242-1.19-9.875-3.988-12.716-7.672
		C125.751,201.743,123.704,198.356,124.561,194.595z M99.001,133.579c-0.283,6.963-0.843,14.954-1.813,23.073
		c-10.902-5.958-17.484-14.48-19.609-24.504c-2.203-10.414,1.056-17.576,3.549-24.66h17.873
		C99.298,114.572,99.37,124.334,99.001,133.579z M29.116,125.609c-2.295-28.79,10.35-53.542,15.451-53.542h50.467l0.772,3.457
		c0.014,0.063,0.291,3.627,0.68,3.627H76.955c-15.181,0-25.163,18.454-28.018,35.244c-1.708,10.066-1.941,25.503,6.63,40.996
		c7.41,13.389,19.63,23.824,36.349,30.901c-0.928,3.826-1.97,7.913-3.131,11.781C43.029,178.669,30.943,148.47,29.116,125.609z
		 M403.811,530.908c-18.143,10.222-49.844,22.406-97.811,22.406s-79.668-12.185-97.811-22.406
		c-10.704-6.029-18.072-12.101-22.563-16.372c12.397-21.897,53.195-83.77,120.374-88.077c33.444,2.14,64.324,18.489,91.789,48.611
		c13.991,15.345,23.583,30.646,28.585,39.473C421.883,518.815,414.508,524.886,403.811,530.908z M553.116,336.277
		c7.212,31.121,6.192,59.11-3.039,83.183c-14.126,36.858-47.527,63.58-99.369,79.526c-5.88-10.229-16.322-26.304-31.128-42.675
		c-29.01-32.062-63.991-51.65-99.412-57.24v-45.388l11.696-5.852c6-14.282,21.479-6.284,21.479-6.284
		c4.569,5.144,4.598-2.854,4.598-2.854c-1.715-36.554-51.963-43.412-51.963-43.412s-50.255,6.857-51.969,43.412
		c0,0,0.007,7.998,4.577,2.854c0,0,15.55-7.998,21.55,6.284l11.696,5.852v45.388c-35.42,5.597-70.409,25.185-99.412,57.24
		c-14.813,16.371-25.191,32.445-31.064,42.675c-51.835-15.946-85.272-42.668-99.398-79.526c-9.23-24.072-10.265-52.062-3.061-83.183
		c6.015-25.949,17.824-53.251,33.268-76.891c6.56-10.038,12.255-21.033,17.073-32.849c6.531,6.142,14.87,10.562,24.128,12.667
		c5.129,1.169,10.874,1.785,16.626,1.785c25.333,0,44.163-10.839,47.988-27.607c2.678-11.76-2.125-24.625-13.531-36.235
		c-9.131-9.294-21.331-16.379-32.63-18.95c-3.96-0.9-7.991-1.36-11.986-1.36c-4.824,0-9.471,0.666-13.821,1.899
		c0.9-7.871,1.516-15.911,1.828-24.122c0.921-24.221-0.914-43.787-2.31-54.768c4.343-2.217,11.958-7.786,25.12-7.786h-0.503v-0.787
		c14.168-3.351,36.965-6.765,68.879-9.308c44.446-3.542,86.356-3.592,86.774-3.592c0.411,0,42.788,0.042,87.22,3.578
		c31.546,2.508,54.654,5.865,68.823,9.174v0.942h-0.503c13.162,0,20.777,5.568,25.12,7.785c-1.396,10.98-3.23,30.731-2.31,54.952
		c0.312,8.211,0.928,16.173,1.835,24.044c-4.371-1.247-9.032-1.962-13.878-1.962c-3.996,0-8.026,0.432-11.986,1.339
		c-11.3,2.571-23.498,9.648-32.63,18.943c-11.405,11.611-16.208,24.469-13.53,36.229c3.818,16.768,22.654,27.6,47.98,27.6l0,0
		c5.745,0,11.49-0.617,16.619-1.786c9.273-2.111,17.633-6.545,24.172-12.709c4.817,11.831,10.526,22.839,17.087,32.885
		C535.286,283.026,547.109,310.328,553.116,336.277z M523.207,197.938c-1.176-3.911-2.225-7.821-3.159-11.696
		c16.541-7.07,28.634-17.363,35.994-30.66c8.572-15.493,8.339-31.127,6.631-41.187c-2.848-16.79-12.829-35.244-28.018-35.244
		h-19.142c0.39,0,0.666-3.556,0.681-3.613l0.778-3.471h50.461c5.107,0,17.753,24.752,15.458,53.542
		C581.063,148.47,568.971,178.535,523.207,197.938z"/>
</g>
</svg>
