<?xml version="1.0" encoding="UTF-8" standalone="no"?>
<!-- Created with Inkscape (http://www.inkscape.org/) -->

<svg
   xmlns:dc="http://purl.org/dc/elements/1.1/"
   xmlns:cc="http://creativecommons.org/ns#"
   xmlns:rdf="http://www.w3.org/1999/02/22-rdf-syntax-ns#"
   xmlns:svg="http://www.w3.org/2000/svg"
   xmlns="http://www.w3.org/2000/svg"
   xmlns:sodipodi="http://sodipodi.sourceforge.net/DTD/sodipodi-0.dtd"
   xmlns:inkscape="http://www.inkscape.org/namespaces/inkscape"
   width="744.09448819"
   height="1052.3622047"
   id="svg4573"
   version="1.1"
   inkscape:version="0.48.1 "
   sodipodi:docname="fall leaves guide Hand Cut Sheet.pdf">
  <defs
     id="defs4575" />
  <sodipodi:namedview
     id="base"
     pagecolor="#ffffff"
     bordercolor="#666666"
     borderopacity="1.0"
     inkscape:pageopacity="0.0"
     inkscape:pageshadow="2"
     inkscape:zoom="0.7"
     inkscape:cx="357.66321"
     inkscape:cy="326.07869"
     inkscape:document-units="px"
     inkscape:current-layer="layer1"
     showgrid="false"
     inkscape:window-width="1600"
     inkscape:window-height="838"
     inkscape:window-x="-8"
     inkscape:window-y="-8"
     inkscape:window-maximized="1" />
  <metadata
     id="metadata4578">
    <rdf:RDF>
      <cc:Work
         rdf:about="">
        <dc:format>image/svg+xml</dc:format>
        <dc:type
           rdf:resource="http://purl.org/dc/dcmitype/StillImage" />
        <dc:title></dc:title>
      </cc:Work>
    </rdf:RDF>
  </metadata>
  <g
     inkscape:label="Layer 1"
     inkscape:groupmode="layer"
     id="layer1">
    <path
       style="fill:#aa4400"
       d="m 379.01081,245.75365 c -1.28488,-1.34095 -2.99062,-3.30664 -3.79048,-4.3682 l -1.45436,-1.93008 1.86221,-26.49107 c 1.02424,-14.5701 1.77056,-26.58509 1.65851,-26.70002 -0.11206,-0.11487 -3.06885,2.56777 -6.57064,5.96145 -11.75561,11.39274 -21.67651,19.32946 -24.16188,19.32946 -0.80065,0 -1.31357,-0.92132 -2.23439,-4.01322 -2.07453,-6.96585 -4.09015,-7.92184 -15.66627,-7.43024 -4.23754,0.17991 -10.96623,0.13798 -14.95265,-0.0932 l -7.24806,-0.42037 0.38468,-4.61807 0.38469,-4.61807 -12.72715,-7.21842 c -6.99994,-3.97011 -12.8742,-7.45634 -13.05391,-7.74706 -0.89419,-1.44687 7.67068,-10.17974 11.39129,-11.61477 0.89398,-0.34483 7.31565,-2.68016 14.27036,-5.18959 11.95983,-4.31551 14.12796,-5.26423 14.12796,-6.18206 0,-0.21374 -2.78364,-2.74995 -6.18588,-5.63607 -10.00354,-8.48604 -19.74155,-19.26408 -19.74155,-21.84994 0,-0.38006 1.52182,-1.72452 3.38183,-2.98763 1.86002,-1.26312 3.38185,-2.49856 3.38185,-2.74544 0,-0.24693 -3.65495,-8.60751 -8.12211,-18.57915 l -8.12209,-18.130211 4.66332,0 c 6.96348,0 9.98349,0.77715 15.58681,4.01098 7.03635,4.06097 10.14757,6.37719 11.77599,8.76708 1.87988,2.75896 2.57568,2.87501 3.89519,0.64971 1.64225,-2.76956 2.21282,-3.28225 3.65281,-3.28225 1.44707,0 1.39715,-0.0338 13.07253,8.879471 4.56975,3.48876 8.40918,6.2426 8.53205,6.11972 0.12288,-0.12287 -0.16515,-1.58225 -0.64001,-3.24306 -1.36678,-4.780351 -3.56779,-17.618431 -4.28338,-24.984141 -0.93379,-9.61174 -0.1899,-14.6238 2.42478,-16.33699 1.08066,-0.70809 1.68826,-0.75708 3.13507,-0.25273 2.3067,0.80414 4.34899,0.27748 5.45203,-1.40594 0.59684,-0.9109 1.76037,-8.44592 3.67578,-23.80482 1.54133,-12.35961 2.87817,-22.85244 2.97072,-23.31745 0.0925,-0.465 4.3938,7.77823 9.55837,18.3183 5.16452,10.54007 9.722,19.7921 10.12766,20.56017 1.15033,2.17785 4.21924,3.95642 6.8511,3.9705 4.28834,0.0231 8.92005,3.1087 9.63672,6.42014 0.31541,1.45741 3.08186,41.105301 3.18011,45.576041 0.0394,1.7895 0.23138,3.35247 0.42685,3.47331 0.87657,0.54172 3.49936,-1.83391 13.96073,-12.645201 l 11.18065,-11.55461 4.79093,-0.6585 c 3.73237,-0.51303 9.20317,-2.29058 24.76025,-8.04517 10.98315,-4.06267 20.15385,-7.31729 20.37931,-7.23247 0.22546,0.0848 -3.88664,9.02163 -9.13796,19.85963 -7.86007,16.222121 -9.48493,19.991801 -9.19201,21.325541 0.1957,0.89101 2.01738,3.38139 4.04812,5.53416 l 3.69235,3.91402 -5.29771,4.95265 c -8.38127,7.83544 -11.64565,10.70161 -14.63159,12.84677 -1.53141,1.10022 -2.78432,2.22535 -2.78432,2.50036 0,0.56465 -0.0389,0.55439 9.58188,2.52764 17.84963,3.66106 30.52527,8.79825 33.70707,13.66072 0.81091,1.23927 0.71611,1.42053 -2.24345,4.2871 -1.6996,1.64616 -4.84533,3.9754 -6.99049,5.17607 -4.54305,2.54269 -12.0093,5.30656 -14.33522,5.30656 -0.88926,0 -1.74294,0.20415 -1.89715,0.45361 -0.15422,0.24952 0.23024,2.80924 0.8543,5.68826 0.62406,2.87902 1.05232,5.30092 0.95165,5.38203 -0.3056,0.24619 -27.06965,2.57245 -29.56483,2.56968 -2.02205,0 -2.40381,0.2006 -2.91244,1.54742 -0.32194,0.8525 -0.73431,2.79813 -0.9163,4.32368 -0.18195,1.5255 -0.42736,2.87012 -0.54522,2.98797 -0.11791,0.11791 -9.40703,-2.46181 -20.64257,-5.73272 -11.23548,-3.27092 -20.64934,-5.94713 -20.91972,-5.94713 -0.27348,0 -0.49149,13.46095 -0.49149,30.34918 0,28.686 -0.0565,30.40031 -1.03079,31.28201 -1.54961,1.4024 -2.32287,1.16393 -4.88044,-1.50531 z"
       id="path4503"
       inkscape:connector-curvature="0" />
    <path
       style="fill:#504416"
       d="m 216.74477,394.98869 c -0.60923,-2.02392 -4.30553,-25.48915 -5.12681,-32.54676 -1.42358,-12.23302 -1.0358,-16.72022 1.50227,-17.3839 0.62682,-0.16396 2.90629,0.6439 5.36529,1.9015 8.3156,4.2526 14.40089,4.39898 21.84843,0.52542 5.87938,-3.05792 7.73578,-4.49306 10.41257,-8.04957 6.97673,-9.2699 12.22416,-26.53312 14.33804,-47.17006 1.61133,-15.73119 1.59831,-15.21828 0.38648,-15.21828 -0.59277,0 -1.60699,0.67282 -2.25382,1.49517 -0.64684,0.82229 -1.31143,1.35978 -1.47686,1.19435 -0.16542,-0.16542 0.36592,-2.9307 1.18072,-6.14508 1.47691,-5.82652 1.47843,-5.85549 0.49645,-9.4833 -2.78252,-10.27938 -6.90605,-18.33881 -11.35869,-22.20042 -1.18607,-1.02864 -1.20986,-1.01591 -2.37512,1.26819 -0.6474,1.26898 -1.27642,2.30726 -1.39788,2.30726 -0.12147,0 -0.5358,-2.3049 -0.92077,-5.12197 l -0.69998,-5.12196 -10.1706,-12.99539 -10.17065,-12.9954 -1.56738,1.87743 c -0.86203,1.03259 -1.67767,1.76651 -1.81249,1.63089 -0.46242,-0.465 -7.68287,-17.00761 -10.18797,-23.34145 -1.37764,-3.48324 -3.01699,-8.18141 -3.64302,-10.44041 -0.62599,-2.25902 -1.2138,-4.18289 -1.30618,-4.27527 -0.0924,-0.0924 -3.44013,5.29692 -7.43932,11.97633 -7.64623,12.7705 -16.03189,28.69068 -17.24462,32.73885 -0.39466,1.31751 -1.01505,2.39548 -1.3786,2.39548 -0.63229,0 -1.64651,-1.60914 -2.11867,-3.3615 -0.52548,-1.95041 -10.00562,19.4538 -10.00562,22.59069 0,0.54741 -0.22382,1.13364 -0.49741,1.30268 -0.86812,0.53658 -3.41639,-1.93385 -3.89335,-3.77441 l -0.45908,-1.77181 -2.57916,3.63909 c -3.22498,4.55015 -4.39639,6.87624 -6.57306,13.05193 -1.87173,5.31061 -4.03442,15.5205 -4.03442,19.04624 0,2.65254 -0.72067,3.21894 -2.56118,2.01298 -0.76136,-0.49883 -1.39236,-0.71092 -1.40216,-0.47132 -0.01,0.23966 -0.38503,2.97213 -0.8338,6.07215 -3.51666,24.29226 0.10118,44.49999 9.68221,54.08102 3.52968,3.52968 11.74637,7.93526 17.94235,9.62021 4.58442,1.24665 16.51358,1.72084 20.85467,0.82895 6.00389,-1.23353 6.78352,-1.27005 7.54415,-0.35353 0.53337,0.64267 0.76334,4.89173 0.89495,16.53534 0.17501,15.48561 0.9206,25.75327 2.19747,30.26115 0.54086,1.90944 1.09858,2.54224 3.1614,3.58667 3.20975,1.6252 8.14008,1.80612 7.68122,0.28182 z"
       id="path4493"
       inkscape:connector-curvature="0" />
    <path
       style="fill:#800000"
       d="m 84.916762,160.19244 c 5.394575,-2.61146 12.361693,-10.63437 18.929978,-21.79861 7.33135,-12.46117 15.65944,-15.68705 19.63828,-7.60682 1.26454,2.56805 1.32592,3.24048 1.32592,14.5291 0,13.05436 0.13436,13.63947 3.49861,15.23593 1.54147,0.73149 2.37558,0.76007 5.48129,0.1878 2.90205,-0.53472 4.63781,-0.52334 8.35426,0.0547 5.16833,0.80398 7.811,0.47289 13.64393,-1.70946 7.44601,-2.78596 12.24556,-11.63984 13.78936,-25.43769 0.76801,-6.86418 2.78069,-10.59513 5.71556,-10.59513 1.79836,0 4.29474,2.59866 4.77949,4.97531 1.17909,5.78097 3.91733,10.85514 6.96214,12.90137 2.22196,1.49325 5.53389,1.69025 7.89435,0.46963 2.60834,-1.34885 7.05115,-6.67998 9.51744,-11.42053 3.40256,-6.54014 10.44228,-15.7242 13.57785,-17.71374 4.29695,-2.72643 9.1478,-3.98222 16.41367,-4.24928 5.80152,-0.21323 7.98895,0.0276 20.84051,2.29396 7.89725,1.3927 14.45781,2.43301 14.579,2.31183 0.12119,-0.12118 -1.29804,-3.08672 -3.15382,-6.58997 l -3.37416,-6.369637 -19.37762,-0.28182 c -21.72559,-0.31597 -21.21366,-0.22201 -24.94079,-4.57636 -1.10696,-1.29321 -2.30841,-3.26556 -2.6699,-4.38297 -2.65153,-8.1964 -7.41163,-13.02262 -12.84427,-13.02262 -4.54117,0 -6.3458,-1.70529 -6.96826,-6.58472 -0.42358,-3.32046 -2.86051,-8.36126 -4.58998,-9.49446 -3.81897,-2.50228 -8.34304,1.04572 -12.782,10.02439 -4.01652,8.12414 -5.63969,9.70988 -8.21307,8.02375 -1.84161,-1.20663 -2.74883,-3.48013 -3.574,-8.95635 -0.74889,-4.97012 -5.53156,-23.29833 -7.34284,-28.13938 -0.71082,-1.89986 -1.94523,-3.81156 -3.13667,-4.85768 -1.66071,-1.45808 -2.41925,-1.72299 -4.90408,-1.7125 -3.60153,0.0152 -6.80735,1.43052 -9.39101,4.14608 -2.86005,3.00606 -3.91389,2.74611 -8.65528,-2.13484 -5.05461,-5.20341 -6.91957,-5.88931 -11.37594,-4.18396 -4.57343,1.75016 -6.10722,3.66523 -6.38117,7.96756 -0.18317,2.87664 0.049,4.18401 1.24929,7.0358 2.19515,5.21547 3.15081,9.46397 3.15081,14.00735 0,3.72335 -0.12582,4.16694 -1.48511,5.23616 -1.83442,1.44298 -3.36668,1.47528 -5.56039,0.11718 -2.19568,-1.35927 -5.36881,-6.69638 -5.99911,-10.09034 -1.4417,-7.76312 -8.41624,-15.69658 -20.333039,-23.12845 -7.392819,-4.61051 -10.720826,-4.42891 -13.513818,0.73752 -0.835151,1.54483 -2.068029,3.25384 -2.739736,3.79775 -1.930267,1.56303 -6.149589,1.28566 -10.678266,-0.70201 -6.235464,-2.73675 -9.931454,-2.09155 -11.271074,1.9675 -1.083304,3.28247 0.221974,7.507 5.70314,18.45852 4.497773,8.98662 5.004293,10.31585 5.004293,13.13259 0,5.99521 -2.658317,8.30681 -8.14153,7.07971 -3.170271,-0.70945 -8.214374,-3.46791 -11.307393,-6.18363 -2.649153,-2.32597 -6.494485,-3.66282 -9.546358,-3.31883 -4.001437,0.45103 -7.743893,2.59725 -8.99412,5.15798 -0.97451,1.99596 -1.004755,2.50369 -0.335749,5.63639 1.739004,8.14303 1.301028,14.46927 -1.761171,25.438927 -1.543184,5.52813 -1.662968,6.48068 -1.084905,8.62747 1.499953,5.5704 7.770688,9.51137 14.281501,8.97552 3.938507,-0.32416 10.392815,-2.35906 16.645328,-5.24788 3.598469,-1.66263 4.806056,-1.94197 8.39439,-1.94197 3.880948,0 4.313271,0.12198 5.838842,1.64758 2.706091,2.70608 2.220673,7.82157 -1.101217,11.605 -2.002934,2.28122 -7.046395,11.14858 -7.94739,13.97298 -1.360981,4.26636 0.602316,6.34663 6.150038,6.5164 3.745488,0.11459 7.083684,1.99924 9.618231,5.43011 2.47865,3.35524 6.844356,5.91912 10.078888,5.91912 1.081265,0 3.069747,-0.53433 4.418847,-1.18742 z"
       id="path4487"
       inkscape:connector-curvature="0" />
  </g>
</svg>
