<svg xmlns="http://www.w3.org/2000/svg" xmlns:svg="http://www.w3.org/2000/svg">
    <g>
        <title>Maple Leaf</title>
        <path fill="#aa4400" d="m102.01081,234.75365c-1.28488,-1.34095 -2.99062,-3.30664 -3.79048,-4.3682l-1.45436,-1.93008l1.86221,-26.49107c1.02424,-14.5701 1.77056,-26.58509 1.65851,-26.70002c-0.11206,-0.11487 -3.06885,2.56777 -6.57064,5.96145c-11.75561,11.39274 -21.67651,19.32946 -24.16188,19.32946c-0.80065,0 -1.31357,-0.92132 -2.23439,-4.01322c-2.07453,-6.96585 -4.09015,-7.92184 -15.66627,-7.43024c-4.23754,0.17991 -10.96623,0.13798 -14.95265,-0.0932l-7.24806,-0.42037l0.38468,-4.61807l0.38469,-4.61807l-12.72715,-7.21842c-6.99994,-3.97011 -12.8742,-7.45634 -13.05391,-7.74706c-0.89419,-1.44687 7.67068,-10.17974 11.39129,-11.61477c0.89398,-0.34483 7.31565,-2.68016 14.27036,-5.18959c11.95983,-4.31551 14.12796,-5.26423 14.12796,-6.18206c0,-0.21374 -2.78364,-2.74995 -6.18588,-5.63607c-10.00354,-8.48604 -19.74155,-19.26408 -19.74155,-21.84994c0,-0.38006 1.52182,-1.72452 3.38183,-2.98763c1.86002,-1.26312 3.38185,-2.49856 3.38185,-2.74544c0,-0.24693 -3.65495,-8.60751 -8.12211,-18.57915l-8.12209,-18.13021l4.66332,0c6.96348,0 9.98349,0.77715 15.58681,4.01098c7.03635,4.06097 10.14757,6.37719 11.77599,8.76708c1.87988,2.75896 2.57568,2.87501 3.89519,0.64971c1.64225,-2.76956 2.21282,-3.28225 3.65281,-3.28225c1.44707,0 1.39715,-0.0338 13.07253,8.87947c4.56975,3.48876 8.40918,6.2426 8.53205,6.11972c0.12288,-0.12287 -0.16515,-1.58225 -0.64001,-3.24306c-1.36678,-4.78035 -3.56779,-17.61843 -4.28338,-24.98414c-0.93379,-9.61174 -0.1899,-14.6238 2.42478,-16.33699c1.08066,-0.70809 1.68826,-0.75708 3.13507,-0.25273c2.3067,0.80414 4.34899,0.27748 5.45203,-1.40594c0.59684,-0.9109 1.76037,-8.44592 3.67578,-23.80482c1.54133,-12.35961 2.87817,-22.85244 2.97072,-23.31745c0.0925,-0.465 4.3938,7.77823 9.55837,18.3183c5.16452,10.54007 9.722,19.7921 10.12766,20.56017c1.15033,2.17785 4.21924,3.95642 6.8511,3.9705c4.28834,0.0231 8.92005,3.1087 9.63672,6.42014c0.31541,1.45741 3.08186,41.1053 3.18011,45.57604c0.0394,1.7895 0.23138,3.35247 0.42685,3.47331c0.87657,0.54172 3.49936,-1.83391 13.96073,-12.6452l11.18065,-11.55461l4.79093,-0.6585c3.73237,-0.51303 9.20317,-2.29058 24.76025,-8.04517c10.98315,-4.06267 20.15385,-7.31729 20.37931,-7.23247c0.22546,0.0848 -3.88664,9.02163 -9.13796,19.85963c-7.86007,16.22212 -9.48493,19.9918 -9.19201,21.32554c0.1957,0.89101 2.01738,3.38139 4.04812,5.53416l3.69235,3.91402l-5.29771,4.95265c-8.38127,7.83544 -11.64565,10.70161 -14.63159,12.84677c-1.53141,1.10022 -2.78432,2.22535 -2.78432,2.50036c0,0.56465 -0.0389,0.55439 9.58188,2.52764c17.84963,3.66106 30.52527,8.79825 33.70707,13.66072c0.81091,1.23927 0.71611,1.42053 -2.24345,4.2871c-1.6996,1.64616 -4.84533,3.9754 -6.99049,5.17607c-4.54305,2.54269 -12.0093,5.30656 -14.33522,5.30656c-0.88926,0 -1.74294,0.20415 -1.89715,0.45361c-0.15422,0.24952 0.23024,2.80924 0.8543,5.68826c0.62406,2.87902 1.05232,5.30092 0.95165,5.38203c-0.3056,0.24619 -27.06965,2.57245 -29.56483,2.56968c-2.02205,0 -2.40381,0.2006 -2.91244,1.54742c-0.32194,0.8525 -0.73431,2.79813 -0.9163,4.32368c-0.18195,1.5255 -0.42736,2.87012 -0.54522,2.98797c-0.11791,0.11791 -9.40703,-2.46181 -20.64257,-5.73272c-11.23548,-3.27092 -20.64934,-5.94713 -20.91972,-5.94713c-0.27348,0 -0.49149,13.46095 -0.49149,30.34918c0,28.686 -0.0565,30.40031 -1.03079,31.28201c-1.54961,1.4024 -2.32287,1.16393 -4.88044,-1.50531l0,-0.00002z"/>
    </g>
</svg>