<svg xmlns="http://www.w3.org/2000/svg" viewBox="0 0 595.28 581.11">
    <title>Asset 1</title>
    <g id="Layer_2" data-name="Layer 2">
        <g id="Layer_1-2" data-name="Layer 1">
            <path d="M595.28,0V581.11H588.4c-1-12.42-1.36-24.9-2.39-37.33-.93-7.94-.17-16.11-2.26-23.85-.48,20.38-.3,40.79-.4,61.18h-4c1.19-12.88.61-25.83,1.16-38.74.49-12-.71-24-1.07-36-.19-22-1.67-43.92-.77-65.89-.74-29-1.18-58.16-5.4-86.93-1.57-9.67-1.23-19.88-5.38-28.9-4.44-9.66-2.08-20.71-4.81-30.83-3.17-12.72-2.9-25.91-4-38.92-1.27-12.76-.34-25.62-1.38-38.39-1.16-15.79-.59-31.81-4-47.32a202.67,202.67,0,0,0-6.44-19.43c-2.17-5.92-6.55-11.91-13-12.81-4-.44-9.29.53-10.73,5.11-2.53,7.17-2.94,14.93-5.2,22.19-4.25-1-9.52-3.82-13.08.33-5.94,4.68-5.15,14.61-.12,19.62,3.35,1.58,7.14,1.63,10.49,3.18,2.59,5.27,1.22,11.51-.09,17-3.49,12.3-8.31,24.16-11.26,36.64a350.48,350.48,0,0,0-6.19,47.6c-.78,10.07-2.95,19.94-4.14,30-2.43,25.72-6.23,51.29-8.19,77.07-.45,8.27-.85,16.55-1.85,24.77-2.05,17.9-2.74,35.94-5.41,53.78-2.53,17.43-1.77,35.16-4.06,52.62-2.37,18-4.09,36.13-3.64,54.31h-4.87c2.29-27.64,3.27-55.38,5.07-83.06,1-12,3-23.85,3.57-35.86,1.4-24.08,3.72-48.07,5.34-72.11,3-25.2,3-50.7,7.09-75.77,3.16-26.08,5.26-52.3,7-78.52a331.28,331.28,0,0,1,5.61-39.71c2.09-9.23-5.25-16.87-5.28-25.87.29-4.86,2.61-9.2,4.64-13.45,5-9.82,9.27-20,13.27-30.3,1.69-4.39,3.33-9.31,7.55-11.7,4.79-3,10.6-7.5,16.32-4.54,7.13,3.79,10.6,11.87,13.52,19.2,3.62,9.62,8.45,18.86,10.32,29.1A259.41,259.41,0,0,1,564,199c.2,13,1.73,25.89,2,38.86.25,12.48.58,25,1.84,37.43.59,7.29,2,14.67.69,22-.6,4-1.88,7.87-1.73,11.93.07,3.46,3,5.59,5.08,7.8,1.12-4.58,2.77-9.53.91-14.15-1.55-4.36-2.94-8.87-2.73-13.59.2-15.3-2.47-30.43-2.49-45.71-.28-13.88-1.52-27.7-1.44-41.58-1.59-19-1.16-38.63-8-56.62-4.3-10.93-6.2-22.87-12-33.14-3.5-6.12-6.35-12.62-9.87-18.73-1.42-2-2.76-5-5.52-4.82a56.24,56.24,0,0,0-7.14,7.43c-2.09-.43-4.18-.86-6.26-1.3-6.06,5.3-8.85,13.32-9.64,21.35-2.05,17-10.53,32-16.62,47.57-3.07,6.89.05,14.09,1.77,20.84,1.77,6.46-.21,13.06-1.33,19.45-3.85,20.78-2.51,42.06-5.11,63-1.47,17.63-1,35.48-4.68,52.85-3.69,27.65-2.91,55.72-6.24,83.42-2.91,22.08-3.2,44.43-5.09,66.62-.94,10.33-3.2,20.52-3.4,30.94-.36,26.82-2.14,53.57-4,80.3h-9.42c-.13-11.53-.34-23-.17-34.59.81-30,.26-60,.49-89.93-.4-14.78.29-29.53,1-44.28.3-31.85.89-63.71,2.94-95.5.08-34.59.38-69.17,0-103.76a138.34,138.34,0,0,0-.79-16.88c-.82,24.07-.87,48.18-1.15,72.28-.91,16.6.33,33.23-.83,49.84-.85,12-1.51,24-2.2,35.95-.78,14.71.54,29.43-.09,44.14-.3,10.61-.77,21.22-1.28,31.84-.61,40.59.75,81.24-1.43,121.8-.12,9.7.17,19.4-.09,29.1H444.3c-.54-18.91.29-37.83.17-56.74-.28-11.07.41-22.09.82-33.14-.22-27.29-1.85-54.61,0-81.85,1.2-22.51-.42-45.09,1.54-67.56.71-27.23,2.35-54.45,1.87-81.7.62-21.2,1.28-42.42,1.15-63.65-.13-24.48,2.65-48.85,2.63-73.33.09-10.63,1.34-21.23.86-31.86-1-17.17.65-34.35-.17-51.54.48-13.24.91-26.48.44-39.74h9.64c-1.22,17.94-1.55,35.92-2.51,53.86-.4,19.67,1,39.34.49,59,.42,60.21.07,120.46.78,180.67-.57,16.44-1.28,32.89-.91,49.35-.16,19.92-1.28,39.83-1.52,59.76-.36,13.64.07,27.31-.93,40.93a262.24,262.24,0,0,0-.36,28.47c2.06-20,1.19-40.1,2.7-60.11,1.06-14.73,0-29.54,1.48-44.26,1.39-16.93-.08-33.94.89-50.9,1.1-19.4.5-38.84,1.75-58.22,1.14-19.76-.09-39.54.2-59.33.54-37.34-.19-74.73,1.43-112.06-1.08-29-1.92-58.12-.78-87.18H470c.07,11.35-.82,22.7.18,34,1.19,13.59.6,27.26,1.55,40.86,1,17.95-.71,35.86-.61,53.81-.65,20,1.22,39.89,3.56,59.69.77,7.28-.42,14.53-1.39,21.72-1.83,13.48-1.07,27.13-1.8,40.69-.59,13.27-1.83,26.5-2,39.78-.42,20.42-3.08,40.76-3.05,61.18,2-5.58,2.31-11.59,2.5-17.49,2.79-42.52,4.31-85.15,8-127.58,2.71-11.9,2.17-24.13.09-36.08-2.91-17-1.85-34.38-2-51.59-.13-18.18.62-36.39-.87-54.53-.9-11.33-.16-22.73-.94-34.08-.74-10.13.34-20.26.63-30.38h7.8c-.48,8.05-1.34,16.08-2.17,24.1-1.31,12.69-.44,25.44-.48,38.16-.16,20.81,2.08,41.55,2.17,62.34-.86,14.06-.49,28.16-1.4,42.2-.55,10.68,2.86,21.25,1.11,31.92A288.22,288.22,0,0,0,477.7,238c.3,18.51-2.71,36.86-2.69,55.37.05,17.39-3.4,34.48-4.87,51.74-1.56,14-2.41,28.1-2.94,42.2-1.61,25.39-2.53,50.81-2.91,76.24-.73,22.72-3.56,45.26-4.83,67.93-.52,8.8-1.68,17.63-.9,26.44a65,65,0,0,0,1.84-9.95c1.34-15.7,2.26-31.45,3.89-47.13,1.38-10.39,1.51-20.89,2.06-31.35,1.23-18.5-.69-37.16,2.14-55.55,2.26-14.71,2-29.64,3.37-44.44.73-19.68,2.94-39.25,5.19-58.8,3-17.43.93-35.18,2.42-52.74,1.3-13.55.34-27.17,1.67-40.71.45-6.64,1.68-13.16,2.54-19.73,1.15-8.51-1.11-16.91-1.65-25.35s.38-16.81,1.19-25.17a655.67,655.67,0,0,0,1.19-87.42c-.18-19.85-1-39.72-.21-59.56h9.27c-.11,12.38.69,24.88-1.68,37.11-2.37,11.58,1.06,23.23.32,34.88-1.52,23.09-3.07,46.28-2.14,69.43a57.59,57.59,0,0,0,7.13-21.14C499,107,505.2,95,506.58,81.65c1.64-10.06,2.74-20.19,4-30.3,1.16-7.14,4.95-13.74,4.58-21.16-.38-10.06-.56-20.12-.61-30.19h29.06c.6,26.86-2.35,54.43,5.2,80.52,2.41,9.27,4.43,18.68,8,27.55,4.21,10,3,21.39,6.8,31.5,5.81,15,6.52,31.37,8.16,47.26,1.65,15.5.08,31.13,1.65,46.64,1.85,20.44-.32,41.62,5.83,61.4-.6-8.43-2.41-16.67-3.07-25.07-1.34-13.85-.66-27.8-1.69-41.66-.66-26.65-.6-53.59-6.18-79.75-1.6-7.21-4.42-14.1-5.52-21.45-1.07-7.11-1.65-14.35-3.85-21.22-11-34-8-70.42-8.74-105.73h3.9c-.17,8.88-.37,17.79.63,26.63C556.37,17.86,556.44,8.9,557,0h5.12c-.45,9.78-.79,19.59-2.24,29.28-2,12.73-1.72,25.74-.49,38.53.81,9.34,4.29,18.1,6,27.26,2.87,15.26,5.08,30.65,7.61,46,7.38,40.28,5.34,81.48,8.53,122.14a724.44,724.44,0,0,0-4.06-110.43c-1.2-8.84-3.72-17.42-5.2-26.22-2.43-12.84-4.11-25.8-5.37-38.81-.75-8.65-4.18-16.74-4.85-25.39-.83-20.81,2.12-41.54,1.44-62.33h13.14c-.12,15.87-1,31.93,2.17,47.58,3.28,27.92.49,56.52,7.3,84,3.06,11.32,3.08,23.2,2.24,34.85-2.08-6.93-2.45-14.21-3.23-21.38-.85-8.7-5.28-16.41-6.54-25-1.75-11.82-2.41-23.77-3.08-35.68-.73-13.41-3.62-26.59-3.66-40-.36-10.81,1.48-21.56.77-32.36-1.87,7.35-2,15-2.71,22.46-1,10.18-1.69,20.44-.86,30.66.62,8,2.78,15.8,3.48,23.81.67,7.76.5,15.59,1.52,23.33,1.5,14,7,27.13,8.41,41.16a417.49,417.49,0,0,1,2.26,47.25c-.24,12.92,1.68,25.72,1.92,38.62.63,22.25-3.15,44.37-2.21,66.62.42,17.59-.55,35.35,2.45,52.74.67-17,.12-34.09,1.07-51.11,1.11-19,.15-38,1.88-57,.24-26.11.09-52.23.86-78.34-.11-13.93-.19-27.93-2.26-41.73-3.43-26.11-2.59-52.56-5.61-78.71-1-9.91-4.23-19.49-4.37-29.51-.17-7.42.54-14.82,1-22.21h3.93c0,12.88.73,25.75,1.69,38.57a96.25,96.25,0,0,0,3.36,19.8c1-19.44.32-38.92.08-58.37h6.84M587,405.52c-1.88-15.79-.33-32.31-6.08-47.39.87,13,1.84,25.93,1.56,38.95.07,16.62,1,33.21.94,49.84,1.22,14.26,1.08,28.61,2.49,42.86.52,4.68-.45,9.57,1.1,14.1.69-7.82-.26-15.66-.08-23.49.38-17.16.33-34.31.49-51.47.05-7.8.42-15.62-.41-23.39M510.69,0c1.46,11.26,3.46,22.93.83,34.16-1.9,8.11-1.53,16.66-4.18,24.6-3.6,10.88-2.1,22.64-4.84,33.69-2.17,8.67-5.42,17-8.7,25.25.94-22.07,1.73-44.37,6.71-65.93,1.95-9.38,4.78-18.53,6.44-28,1.39-7.87.45-16,2.28-23.81h1.47m-9.5,0c.54,8.87,2.17,17.85.57,26.7a200,200,0,0,1-5.46,23.47C494.88,33.37,501,16.69,497.61,0h3.58M450.85,0c.38,20.27-.26,40.53-.66,60.8-.28,23.05-.11,46.13-1.32,69.15-.52,16.16-.22,32.33-1.4,48.45-2.2,36-.87,72-1.73,108,.11,18-1.19,36-1.37,54-2,25.58-.38,51.26-1.71,76.87-1.48,27.82,1.38,55.7-.34,83.51-.53,13.42,1.61,26.86-.12,40.24s-.78,26.7-1.28,40.05h-7c-2-30.7.52-61.42.61-92.13.85-54.14-.4-108.31.69-162.45.24-13.39-.32-26.8.34-40.18,1.89-29,.58-58.07,1.43-87.08,1-14.74.5-29.54,1.87-44.25,2-38.26,3.06-76.55,4.79-114.83,1.22-13.37.38-26.8.63-40.19h6.6m-9.27,0c-.62,12-.13,24-.19,36-2.53,43.5-3.6,87.08-5.56,130.61-3.08,25.57-1.55,51.37-2.83,77.05,1.1,38.26-.65,76.51-.69,114.77-.33,10.06-.66,20.12-.29,30.18.74,19,.29,37.92-.37,56.88-.34,30.8,0,61.61-1,92.4-.87,14.4-.29,28.83-.66,43.25h-4.21c-.61-13.38.59-26.73.36-40.11-.44-21.68.17-43.36-.07-65,0-18.4,1.55-36.79.58-55.19a165.5,165.5,0,0,1-.05-21.28c1-14.42-.2-28.85-.15-43.28-1.2-21.88,0-43.79-.69-65.68-.7-21.22,1.5-42.38,2.46-63.56.59-12.94-1.08-25.9.09-38.82,1.8-21.78,3.86-43.56,4.88-65.4.46-13.14.17-26.3,1.15-39.42.91-11.18-.42-22.35-.54-33.52-.17-16.6-.5-33.21,0-49.81h7.74M429.95,0c1.2,30.42,1,60.89.12,91.32,0,11.89.45,23.8-.58,35.64-1.39,17.13-2.24,34.3-3.25,51.46-1.18,20.33.93,40.69-.4,61-1.22,16.92-1.18,33.91-1.51,50.87.75,25.89.62,51.8.61,77.7.13,8.29.57,16.56.12,24.85-1.14,21.21.13,42.48-.5,63.7-.53,17.59.37,35.2-.65,52.77-.89,12.84.36,25.68-.15,38.52-.4,11.08-.26,22.16-.42,33.25h-5.73a188.58,188.58,0,0,1-.32-35.42c1.3-14.47,0-29,1-43.5,2-28.53.68-57.16.87-85.73.44-42.89.67-85.8-.93-128.66.15-18.91-.34-37.85.54-56.76,1.06-23.49-.21-47,1.72-70.48.57-13.42,2.54-26.75,2.69-40.19.12-12,.87-24,1.52-36,2.87-28,.56-56.22,1.1-84.33h4.1m-6.77,0c2.17,29.53-.93,59.09-1.53,88.62-.85,16.83-2.58,33.58-4.33,50.32-1.18,22.37-2.31,44.79-1.93,67.22.61,35-.73,70.11.08,105.15-.08,14.32,1.8,28.62.86,42.95-1.19,18.4-.83,36.86-.75,55.29.09,11.57-1.91,23-1.5,34.62.19,6.9,1.07,13.77,1.28,20.68.52,12.95-1.43,25.83-1.26,38.8.11,8.74-.48,17.47-1.1,26.2-1.22,17.07.22,34.17-.11,51.26h-3.08a143.16,143.16,0,0,1-.58-21.82c1.2-19.94.22-39.89-.49-59.81-.56-12.95,1.61-25.82,1.11-38.77s-2.09-25.83-1-38.78a284.39,284.39,0,0,0,.34-44.52c-.77-9.38.66-18.74.22-28.12-1.92-31.53-.74-63.15-.69-94.71-.78-26.32,1.2-52.58,1.41-78.88.73-19.76,2.61-39.46,4.41-59.15,1.79-21.36,2-42.84,4.34-64.14.37-17.46-1.4-34.92-1.43-52.41h5.75m-9.88,0a402.27,402.27,0,0,1,1.19,49.73c-.48,13.48.24,27-1.48,40.44-2.58,20.48-2.73,41.23-5.86,61.64-2.13,15.72-.54,31.62-.82,47.43-.28,13.38-.34,26.77-.59,40.17-.11,10.17-1.95,20.21-1.93,30.38,1,33.66,1.26,67.34,1,101-.13,12.48,1.55,24.89,1.56,37.37.11,9.74-2.37,19.35-1.46,29.11.66,7.07,1.4,14.2.62,21.29-1.91,18.19-.45,36.5-.56,54.75.48,22.58-1.59,45.39,2.28,67.78h-4.64c.66-27.86-5.26-55.22-7.21-82.91-1.72-17.14-6.32-33.91-6.31-51.25.12-14.39-3-28.56-2.62-43,.13-12.47-.52-24.93-.53-37.41s-2.87-24.74-.71-37.07c2.06-11.86-.32-23.77-2.47-35.41-2.69-13.92-3.2-28.17-3.06-42.32.19-9.77-2.71-19.23-2.69-29,0-8,.38-16-1.06-23.88-1.88-10.85-3.35-21.83-3.06-32.89,1.14-24.06-3-47.94-2.5-72-.32-10.2-2.76-20.2-3-30.41-.26-8.91,3.11-17.35,3.29-26.22.65-13-4.82-24.95-7.26-37.4H374c1.79,9.37,3.72,18.72,5.09,28.17,1.8,13.25-2.75,26.32-1.65,39.57,1.3,18.47,2.58,36.94,2.51,55.47.9,15.88-.69,31.77.29,47.65.19,10.47,2.54,20.71,3.41,31.12,1.75,17.93,1,36,2.31,53.95,0,17.31,2.47,34.47,5.16,51.51,1.08-20-.65-39.94-1.95-59.87a235.2,235.2,0,0,1-1.43-29c-.63-20.19-5-40.22-3.54-60.5.52-12.59-1.23-25.14-.9-37.73.48-16.17-.89-32.29-2.2-48.38-1.39-14.36,3.82-28.42,2.1-42.79C382,19.45,379.9,9.82,379.24,0h9.54c.4,17,1.95,34.11.36,51.12-1.07,13,1.15,25.87,1.07,38.82,0,7.13.24,14.24.9,21.33,1,9.22-.77,18.44,0,27.66,1.24,15,.26,30.11.86,45.15,1.38,26.72,3.39,53.41,4.79,80.12.05,15.7,1.36,31.38,1.11,47.1-.08,13.38.15,26.76.41,40.12.36,21.68-.62,43.35-.29,65,.18,11.17,1.8,22.22,2.34,33.36a79.54,79.54,0,0,0,2,14.49c.73-17.85-2.66-35.53-2.66-53.37.25-48,0-95.93,0-143.89,0-9.34-1.53-18.55-2.35-27.82-1.22-15.51-1.61-31.09-3.71-46.5-1.9-14.82-.78-29.79-1-44.68-.28-15.68-.05-31.37.09-47-.48-16.58-2-33.18-.78-49.77.67-8.3,1.69-16.63,1.07-25-.63-8.77-2-17.48-2.8-26.23h6.26q.36,10.46,1.71,20.85c2.68,20.51,1.38,41.25,1,61.85.09,13.37.69,26.76-.09,40.12-.82,12,.7,23.94.11,35.92a349.43,349.43,0,0,0,2.41,36.64c3.1-16.58.6-33.43.4-50.11-.37-12,.18-24,.33-36-.13-21.35,3.84-42.44,4.56-63.73A252,252,0,0,0,402.09,0h11.2M354.59,0c-.18,17.67-4.93,34.87-5.19,52.54-.2,7.57.58,15.27-1.19,22.7-1.36,5.76-3.49,11.3-4.77,17.09-2.54,10.21-1.32,21-4.47,31.13-3,9.82-5.21,20.86-.74,30.61,3.58,7.61,3.27,16.19,3.27,24.43-.11,7.35,1.15,15.48-2.79,22.05-2.57,5.88-11.52,3.14-13.27,9.58-9.85,31.52-21,62.58-30.48,94.25-3.48,11.14-3.33,23-5.4,34.44-3,18-1.75,36.22-3.36,54.29-1.2,14.74,1.31,29.43.65,44.18-2.34,42.39-.32,84.87-1.11,127.29-.18,5.54-.73,11-1.24,16.53h-4.31c-.71-12,.62-24,.3-36-.36-12.94,1.36-25.8,1.35-38.74.11-16.57-.29-33.18.89-49.73,1.48-22.63-1.2-45.24-.65-67.88-.62-15.58,1.75-31,2.94-46.49,1-10,1.2-20.09,3.14-30,4.06-17.79,8.24-35.57,14.15-52.8,4.25-20.73,9.42-41.26,13.23-62.07,1.42-13.85,5.54-27.16,7.45-40.91,1.22-8.4-3.4-16-5.66-23.7-3.88-10.45-3.48-21.82-5.61-32.67s-3.35-21.78-4.38-32.75c-1.1-11.82-.69-23.72-1.92-35.52-1-10.64-2.13-21.27-2.74-31.93h6.93c.24,5.56.33,11.12.59,16.69.4,9.27,3.18,18.24,3.43,27.53.63,10-.75,20,.54,30,.62,5.95,5.24,9.91,8.23,14.58,2.09,3.87,2.42,8.45,3.49,12.69,5.25-2.39,6-8.72,8.24-13.56,2.22-5.92,6.72-10.92,7.41-17.42.37-3.56-2.45-6.12-4.23-8.76A122,122,0,0,0,344.21,0h10.37M331.48,132.47c-1.85-7.32-2-14.89-3.27-22.28-4.13,5.81-5.33,13.74-1.64,20.14.62,2,3.64,5.45,4.91,2.13M337.48,0a32.73,32.73,0,0,1,2.22,26.12c-1.89,5.23-4.26,10.4-4.59,16.09a90.35,90.35,0,0,1-9.17,34c-3-4.5-6.18-9.42-5.83-15.21.41-13-3.2-25.58-4.47-38.44A188.94,188.94,0,0,1,314.9,0h22.58M300.59,0c.79,17.89,2.55,35.71,2.88,53.63a403.52,403.52,0,0,0,6.18,51.4c1.84,10.24,1.36,20.78,3.58,31,1.75,8.05,3.69,16.17,3.41,24.49.11,9.91-3.51,19.26-4.22,29.07-.87,11.53-3.36,22.83-6.19,34-2.46,9.74-6.26,19.09-7.75,29.08-1.67,11.14-4.71,22-6.83,33-1.65,8.66-4.91,16.91-6,25.69-2.12,16.55-4.15,33.11-5.19,49.77-.85,23.06-.38,46.14-.28,69.22,1.61,38.78-2.58,77.47-2.69,116.24-.25,11.53.62,23.09-.63,34.59h-9.66c1-15.25,2.66-30.42,3.77-45.66,1.61-15.91,3.94-31.74,6.07-47.58,2.2-19.29.28-38.69-1.32-57.93-.87-26.18-.42-52.37-.61-78.55,1.55-23,4.87-46,3.94-69.14-.75-14.87,1.14-29.65,2.1-44.47.38-15.65,1.49-31.26,1.92-46.9,1.58-19.36,4.23-38.62,6.85-57.83,1.07-7.89.12-15.83-.09-23.71-.37-12.09,2.59-23.88,4.06-35.78,3.12-24.41-.83-49.19,2.51-73.55h4.14m.34,101.58c-.74-6.71-.38-13.64-2.49-20.12-3.31,14.94-1.94,30.37-2.61,45.55-3.68,30.29-7.2,60.62-9.33,91.08-1.39,10.79-3.37,21.58-3.11,32.54,5.11-13.77,6.1-28.65,9-43A205.29,205.29,0,0,0,296.12,166c-.11-10.88,5.12-20.85,5.19-31.7.24-10.9.83-21.86-.37-32.72m6.65,25.51c-1,6.48-1,13.06-2.08,19.51-2.21,13.2-.32,26.76-3.12,39.89-5.78,28.32-12,56.56-17.83,84.88a67,67,0,0,0-1,16.52c2.74-8.22,4-16.85,5.91-25.29,6.55-32.47,16.68-64.48,17.29-97.94-.29-12.55,3.23-25,.87-37.56M292.23,0c-.42,11.4.3,22.83-.48,34.22-2.55,24.09-6.55,48.05-7.66,72.29-2.29,26.65-2.72,53.41-4.06,80.11-.81,9.75-2.5,19.43-2.5,29.25.07,15.68.87,31.35.36,47,0,19.08-5.69,37.62-5.15,56.73.21,16-1.06,32-.91,48,.86,20,.36,40,1.65,59.92.36,16.26,1.57,32.62-.56,48.81-1.8,13.16-1.56,26.48-2.77,39.7-.58,11.4-3.1,22.57-3.54,34-.46,10.36-.21,20.74-.65,31.1h-2.78c0-18.68.38-37.4-.89-56-1.07-13.16,1.36-26.25.93-39.42-.48-40.12.82-80.29-1.24-120.37.09-21.24-2.62-42.32-3.12-63.53-.54-17.83-2.61-35.59-2.94-53.42.61-24.66.44-49.33.91-74-.44-20.8,1.06-41.54,1.14-62.3,1.27-24.92,4.43-49.71,5.05-74.66-.15-12.47-.16-24.92.22-37.37h13.41c-2.75,29.06-8.35,57.82-9.1,87.07-.77,17.57-3.14,35.06-2.88,52.67.24,11.26-.79,22.5-.58,33.76.34,15.5.65,31,.61,46.49-.2,18.91,1.86,37.77,1.37,56.7-.59,15.32,1,30.59,1.77,45.88,2.38-11,1.67-22.3,2.22-33.47.37-8.76,1.3-17.5.91-26.29-.77-17.5-3-34.95-2.63-52.51.44-26.73-.83-53.5,1.26-80.18,0-18.9,1.14-37.76,1.9-56.63.48-8.09,1.83-16.09,3.1-24.07C277.2,33,277.37,16.33,280.36,0h4c0,9.1-.22,18.19-.58,27.3-.38,11.33-3.55,22.29-4.78,33.52-1.76,15.7-5.28,31.41-3.58,47.3,6-20.85,7-42.68,10.07-64.09,2.41-14.6-.5-29.35.16-44h6.57m-33.8,0c2.68,34.59-1.47,69.15-2.78,103.7-.21,10.06-1.41,20.08-1.06,30.15,1.26,39.78-.66,79.56-.81,119.35-.37,20.77,2,41.45,2.61,62.19.32,17.13,3.25,34.11,2.83,51.26-.33,22.59,1.72,45.16.54,67.74-.3,14.78-.42,29.55-.48,44.33.11,15.71-2.1,31.33-1.56,47,.56,13.57.11,27.17,1,40.74a108.09,108.09,0,0,1-.42,14.62h-8.14c.45-16.16-1.9-32.2-2-48.33-.54-18.29-1.48-36.61-.18-54.87,1-14.48-.4-29-.34-43.46-.19-21.17.24-42.35-.81-63.51-1-22.17-.17-44.37-1.76-66.51-.59-26.3-.65-52.6-.55-78.92,0-14.76,1.26-29.5,1.36-44.26C246,166,247.5,150.9,248,135.7c.29-8.29-.58-16.58-.15-24.86.42-7.89.7-15.77.77-23.67.81-29,4-58.11,1.87-87.17h8M247.59,0c.57,60-1.93,119.85-4.63,179.72-1.18,15.7-.34,31.46-.7,47.19-.6,30.92.2,61.85,0,92.77,1.34,23.45,2.37,46.93,3.5,70.4.12,30,0,60,.16,90-1.11,33.69,1.43,67.35,1.47,101h-6.65C237.7,534.61,238,488,237.9,441.38c.13-15.71.44-31.42-.62-47.11-.46-23.84-.29-47.69-1.1-71.52-1.28-16.26-.48-32.57-1.63-48.83-.85-32.24.21-64.49,1.55-96.7.91-13.86.19-27.78,1.26-41.63,1-12.44.56-25,1.91-37.37,1.57-15.65,3.28-31.35,2-47.1.7-17.06-1.08-34.06-.5-51.12h6.87m-11,0c.74,31.71,1.15,63.48-.75,95.16-.24,16.29-2.32,32.46-2.08,48.76q-.73,22.14-1,44.29c-2.21,26.68-.63,53.48-1.09,80.21-.6,24.73,1.42,49.38,1.58,74.09-.52,19.14,1.31,38.22.93,57.35-.3,17.56,2.21,35.06.92,52.61-1,12.59-1.07,25.21-1.68,37.81-.64,13.24,1.36,26.38,1.93,39.58.54,17.09,1.69,34.15,1.27,51.25h-7.81c-.34-15.2.34-30.45-1.19-45.62-1.4-19.25.53-38.56-.67-57.82-1-14.35,1.75-28.64,1.19-43-.54-15.76-2.13-31.48-2-47.26.27-28.58-2.08-57.09-3.17-85.63-1.75-23-.13-46.1,0-69.15.17-10.57-1-21.13-.32-31.68,1.28-19,1-38,1.07-57-.78-15.22.12-30.51-1.44-45.69-1.77-23.13-2.17-46.35-3.52-69.5-.67-9.56-.89-19.15-.75-28.72h6.9c.66,23.06-.61,46.11,0,69.18.25,9.35-.52,18.72.48,28,.93-12.58,2.21-25.11,3.25-37.66.36-19.85.12-39.71.17-59.56h7.75M214.68,0c1.85,31.31,2.84,62.68,4.6,94,1,18.93.15,37.87.29,56.81.13,27.31-1,54.61-2,81.89.09,23.45,2.41,46.83,2.16,70.3,0,8.7-.33,17.44.33,26.12,1.62,19.41.7,38.92,1.18,58.37,1.12,26.43,3.4,52.91,1.6,79.35-1.85,18.68-.36,37.45.67,56.13.05,19.38,1.77,38.73,1.43,58.12H217.2c-.38-17.53-.1-35-.24-52.58-.2-18-3.78-35.94-2.57-54,.69-9.19,1.44-18.39,1.11-27.62-1.28-28.12-2.62-56.26-2.82-84.41-.2-9.93-1.43-19.81-1.34-29.75.13-17.32-2-34.53-2.14-51.84-.05-13.85,0-27.69-.37-41.54-.49-16.6.79-33.19.49-49.8.19-16.62-.4-33.25.63-49.85.54-11-.12-22.11.29-33.16.62-20.74.07-41.49-1-62.21.23-14.82-1.53-29.54-1.8-44.33h7.2M203.49,0c-.05,11.35.15,22.7.9,34,1.15,19.26.09,38.59,1.35,57.85a312.8,312.8,0,0,1-.24,40.46c-1,14.64-.42,29.35.2,44,.5,18.28-1.71,36.49-1.89,54.74.81,22.48,2.8,45,2,67.47,1,21.78.33,43.6,1.84,65.35.44,25.82.83,51.66,2.51,77.43.9,14.44-3.85,28.56-2.59,43,.61,8.22,2.3,16.28,3.25,24.46,1.18,9.57.91,19.25,1.54,28.86.73,14.5,2.38,29,2.2,43.5h-7.1c-.61-12-1-24-1.26-36.05-1-17.06-3.84-33.93-6.9-50.7a79,79,0,0,1-.56-22.41c1.83-17,.59-34.22.81-51.33.15-22.59.25-45.19-.93-67.77S199,307.57,197,285c-1.23-18.4-.86-37-4.07-55.19-3.18-16.38,4.42-32.2,4-48.55-.38-22.61.37-45.2,0-67.81-.12-13.39,1.32-26.72,1.26-40.11s.61-27,1.12-40.46c.49-11-.5-21.93-1-32.89h5.13m-7.69,0c1,21.76.07,43.53-.78,65.28-3.14,38.6-1.1,77.37-1.84,116-.28,9.42-2.38,18.64-3.47,28-1.48,12.4.94,24.74,1.93,37.07,2.3,22.14,1.16,44.46,2.34,66.66.59,10.51.3,21.06.82,31.57,1.87,29.46,1.28,59,1.19,88.51-.13,9.31-.09,18.64-.83,27.92-2.13-9.62-1.65-19.52-2-29.32-.21-16.15-1.84-32.25-1.53-48.43-.58-18.9-1.43-37.8-1.26-56.73.41-18.51-2.84-36.84-2.69-55.34.22-13-.69-25.9-1.52-38.82-.62-8.62-4.71-16.91-3-25.68,2-10.68,4.51-21.34,4.66-32.29,1-13.85-2.25-27.52-2.12-41.34,1.27-32.82,0-65.68,1.06-98.51.83-11.5-.07-23-.18-34.53h9.25M183,0c1.23,15,2.16,30.33-.45,45.23C179.34,30.38,181.74,15,180.08,0H183m-5.75,0c.58,6.9,1.15,13.79,1.35,20.73.23,28.35,6,56.53,3.14,84.91a60.14,60.14,0,0,1-2.4-9.91c-1.39-10.86-5.07-21.25-6-32.18C170.61,42.42,172,20.89,167.52,0h9.7M163.66,0c1.63,12,4.09,23.84,4.27,35.95.41,13.56.79,27.26,3.69,40.53,1.72,8.37,7,15.66,7.18,24.42.49,12.44,1,24.9,2.72,37.25,1.52,10.6,1.56,21.33,1.43,32-.2,9.82-.34,19.74-2.63,29.33-1-17.61.91-35.57-3.2-52.87-3.23-12.25-6.65-24.43-9.62-36.75-2.7-14.07-5-28.28-5.57-42.64-1.16-22.41-3.4-44.79-3.44-67.24h5.16m-9,0c2.09,23.69,1.59,47.61,5,71.19,1.94,12.55,3.49,25.15,4.91,37.79,3.33,23.71,10.2,46.88,11.38,70.91.44,9.13,1.39,18.22,1.84,27.34.52,30.69-3.74,61.14-5.93,91.68-.63,9.89-3.69,19.38-4.84,29.21-1.68,13.28-2.49,26.67-4.37,39.95-1.44,9.35-4.74,18.25-6.77,27.46-2.55,10.94-.9,22.28-1.19,33.4.37,17.61-.82,35.41,2.37,52.81,5.66,32.82,3.35,66.34,6.68,99.38h-5.54c-.91-10.78-.41-21.61-1.54-32.37-1.41-13.46-2.14-27-4-40.43-1.76-8.36-3.64-16.77-6.59-24.74a5.13,5.13,0,0,0-7.74-2.74c-2.91,2.41-4.17,6.24-5.27,9.8-4.52,16.62-7,33.83-13,50-4.19,13.6-10.3,26.5-13.32,40.5h-8c3.09-14.22,8.68-27.67,11.89-41.87,7.05-24.53,10-50,14.36-75.16a58,58,0,0,0,.24-21.17c-4.33-28.6-8.81-57.17-13.12-85.77-3.64-15.1-6.3-30.54-6.13-46.17,4.55,13.39,6.3,27.57,9.71,41.27,5,18,8.17,36.57,12.57,54.76.61,3.2,3.86,4.23,6,6,2.76,1.59,4.19,4.62,5.74,7.34a65,65,0,0,1,5.56-16.77c1,5.82,1.52,11.76,3,17.5.71-4.43,1.11-8.87,1.42-13.33.5-9.73,4.55-18.83,4.67-28.6.33-13.28,2.26-26.41,3.21-39.64,1-14.61,8.82-27.52,10.11-42.08,1.56-16.82.9-33.74,1.83-50.6.52-9.88.77-19.77.91-29.65.26-12.6-4-24.7-4.09-37.29-.66-7.46.79-15.07-.91-22.4-1,14.33.28,28.74,1.3,43,2.41,22.12-.34,44.33-.44,66.48-.2,10.14-.07,20.33-1.15,30.41-1.16,12.54-7.88,23.58-9.26,36.07a293.81,293.81,0,0,1-5.25,32c-1.64,6.9,1.44,14.64-2.31,21-4.46,7.76-9,15.73-15.73,21.64-4.46-9.89-7-20.51-9.4-31.08-2.84-9.7-3.39-19.92-6-29.68-4.35-15.5-7.66-31.3-11-47.07-2-6.86-4.83-13.57-4.86-20.88-.61-16.13-4.42-32.35-1.26-48.44,1.64-15.92,5.08-31.61,6-47.62.6-10.33,3.86-20.24,4.38-30.58.63-8.11.77-17.1,6.07-23.63,3.37-4.1,7.45-8.36,12.74-9.28,3.9-.65,4.75,4.15,6.27,6.82.77-2.19,1.57-4.36,2.37-6.53,4.22,4.47,6.88,10.16,9.93,15.47-1.63-7-3.48-14.87-9-19.7-4.45-2.49-11-4.07-15,0-6.1,6-11.3,13.3-13.57,21.81-1.88,6.45-1.83,13.23-2.38,19.88-.59,7.51-2.57,14.8-3.44,22.28-2.22,20-4.93,39.85-7.7,59.73-1,8.62.38,17.25.68,25.87a143.72,143.72,0,0,0,2,20.21c3.52,19.48,3.25,39.5,7.2,58.91,3.08,15.83,3.94,32,6,48,4.66,25.14,4,50.88,4.78,76.35.69,24.79-7.2,48.43-13,72.11-3.92,13-6.22,26.51-8.48,40H92.27c1.07-5.6,1.64-11.3,2.78-16.89,2.61-13.38,7.34-26.2,9.68-39.64,2-11.26,4.09-22.5,6.18-33.75,2.41-12.64,1.16-25.6,1.35-38.39-.24-15-.13-30.12-3.08-44.84-3.06-15.21-3.84-30.77-6.36-46.08-1.47-15.81-5.13-31.24-8.07-46.79-2.74-21.33-4.45-42.88-9.17-63.88-1.9-8.36-.63-16.95.42-25.32,1.75-13.73,1.64-27.6,3-41.37,1.26-12,.4-24.1,2.29-36,1.26-8.34,1.44-16.78,2.14-25.17C95,106.45,97,90,97.64,73.4a113,113,0,0,1,4.52-27.48c4.14-15,5.46-30.7,8.85-45.92h43.68M128.51,39.25c-1,.83-2,1.69-3.06,2.53-.71-.26-1.44-.51-2.17-.76-.16,10.09-5.41,19-7.14,28.81A79.45,79.45,0,0,1,108,94.69c-2.22.58-4.45,1.19-6.67,1.81q2.84,1.91,5.67,3.75c-.23,7.48-3.31,14.35-5.07,21.49a80.59,80.59,0,0,0-2.38,17.89C99.16,153.15,97,166.52,95.79,180c-.61,7.69,0,15.44-.91,23.11a97.46,97.46,0,0,0-.77,13c2.17-6.32,1.72-13.12,2.51-19.68,1.1-9.6.83-19.36,2.71-28.86,2.47-13.12,1.51-26.68,4.45-39.71,1.1-5,1.6-10.2,2.9-15.18,4.31-13.17,11.81-25.2,14-39.09,1.46-6,5.53-10.86,8.16-16.37,2.16,1.8,4.13,3.93,6.63,5.19,2.12.46,4.31.3,6.36,1,3.32,3.42,4.79,8.23,6.59,12.62,4.19,10.31,3.52,22.15,9,32-.37-9.64-3.61-18.8-4.71-28.34-1-8.56-3.2-17.39-8.72-24-2.42-1.74-5.6-1.76-8.4-2.53-2.1-4.75-4.08-9.6-7-13.86m2,89.93c-2.29-.54-5.17-2.68-7.13-.22-4.51,4.33-8.76,9.74-9.6,16.31-1.22,8-.57,16.17-2,24.14-4.31,21.39-5.61,43.29-9.54,64.77-.78,6.31-2.84,13.21.07,19.25,3.52-16.3,3.8-33.1,6.75-49.49,2.63-13.79,1.76-28.25,6.59-41.58,3.2-8.18.09-19.23,7.66-25.2,2.3-2.34,5.29.41,7.8.93,2.5,1.23,5.19,0,7.66-.62,3.44,2.39,4.39,6.43,4.35,10.53-.11,5,3.4,8.76,6.12,12.47-3.61-7.89-3-17-6.31-24.9-1.9-5.51-8.15-4.46-12.41-6.38m30.19,24.21a7.4,7.4,0,0,0-7.18-5.59,29.12,29.12,0,0,0,1.14,10.2c2-1.51,4-3.06,6-4.61M134.5,151c-3.16-.15-7.05-.84-9.22,2.27-5.75,7-10.07,15.83-10.45,25.22-.89,11.43-.66,22.9-.58,34.34.17,6.61-.15,13.31,1.43,19.77a132.11,132.11,0,0,0,2.55-25.8c-.51-9.93-1.4-20.28,2-29.8,1.42-4.12,4.92-6.78,7.28-10.24,1.07-3.89.85-8,1.23-12,6.08,1.11,6.55,8.27,8.44,13.19,1.87,6.5,6.59,11.94,7.08,18.87.65,3.4-2.53,5.29-4.48,7.35a38.91,38.91,0,0,1,3.85,11.43c1.52,9.4,4.29,18.65,4.21,28.27-.24,10.18-.61,20.53-3.66,30.3-2.18,11.18-6,21.89-8.33,33-1.15,4.4-2.59,9.6-7.14,11.3-7.08-7.43-5.81-18.56-9.72-27.53-2.31-5.4-2.45-11.43-4.52-16.89-.24,6.81-.12,13.73,1.44,20.37,1.88,6.39,4.72,12.41,7.09,18.62,2.26,5.31,4.06,11.05,7.83,15.46,1.24,1.56,3.48.94,5.16,1.3,2-4.11,3.94-8.2,5.85-12.34,3.32-6.82,3.23-14.71,5.52-21.89,2.54-8.23,5.16-16.7,4.5-25.49-1.52-19.8-2.33-39.64-3.76-59.44-.71-8.91,1.31-18-.85-26.77-2.92-8.33-7.94-15.62-12.71-22.87m26,24.27c-1.07-4.79-5.56-7.19-8.61-10.46,3.78,9.35,9.57,18.33,9.57,28.85-.07,14,.57,28-.86,41.87-1.45,16.49.15,33.05-.73,49.56-.5,11.66-7.16,21.5-11.64,31.8-2.8,5.66-4.09,12.89-10,16-3.24,1.63-7.54,6.56-11,3.09-6.56-8.05-9.47-18.47-14.6-27.45,1.89,10.66,6,20.69,10.28,30.47,4,8.88,4.29,19,8.32,27.91,2.17-3.64,3.32-7.76,4.75-11.73,1.23-3.58,5.81-4,7.32-7.43,4.83-10.21,5.05-22.07,10.17-32.17,3.82-9.37,9.35-18.61,9.13-29.14.4-12.94.28-25.89.45-38.82,1.38-17,1.5-34.05,1.59-51.08,1-7.43-2.24-14.32-4.1-21.29m-21.6,43.32c-1.71-13.09-3.33-26.8-9.6-38.49-2.34,4.76-6.23,9.34-5.44,15.07.78,17.65-5.61,34.81-3.93,52.47.45,6.34-.72,12.84.73,19.08a39.31,39.31,0,0,0,7.63,10.06c1.48,2,4.15.25,5.24-1.31,1.77-5.38,1.53-11.4,4.27-16.45,3.11-6.12,6.81-12.4,6.51-19.62.22-7.42-4.39-13.63-5.41-20.8M145,421.76c-2.64,5.62-3.16,11.93-3.45,18.08l3.76.1a87,87,0,0,0-.3-18.18M107.32,0c-2.82,15.76-4.15,31.92-9.1,47.18-3-15.66-.08-31.52,1.29-47.18h7.81M95.52,0c-.78,12.7-3.09,25.35-2.2,38.12C94.93,65.55,92,93,91,120.35c-1.37,13.37-3.28,26.68-3.62,40.12-.41,24.5-2,49-3.78,73.4a29.82,29.82,0,0,1-2.65,10.47c-2.75-8.86-1.07-18.21-.7-27.28,1.06-24,2.49-47.87,3.12-71.85.3-10.16,2.46-20.16,2.66-30.33.24-13.37-.66-26.7-.82-40.07.58-13.77,1.2-27.64-.85-41.34C82.64,22.4,83.13,11.15,83.51,0h6.81a73.6,73.6,0,0,0-1.42,22.4C91.18,15.18,91.74,7.55,91.65,0h3.88M80.85,0c-2.86,26.25-.44,52.63,0,78.95.4,8.29,1.75,16.56,1.14,24.89-1,13.31-1.14,26.69-2.35,40-1,32.21-1.48,64.45-3.24,96.63-2.58,1.12-5.17,2.23-7.79,3.27,1.27-6.53,3.45-12.87,4-19.54,1.81-28.14,1.39-56.37,3-84.51,1.76-22.46,1.39-45,.56-67.52-.41-11.8-2-23.56-1.46-35.38C75.3,24.53,75,12.22,76.31,0h4.54m-8,0q-.06,28.35-.16,56.71c-.2,10.14-1.14,20.31.05,30.44,1.89,15.22-.4,30.49-.17,45.76-1.1,18.46-1,37-2,55.43-.94,12.51.29,25.14-1.32,37.61-1,8.33-6.23,16.35-3.72,24.93C66.8,257,73,259.38,77.11,263c-2.38,12.29-2.12,24.79-1.56,37.23-.28,20,3.48,39.65,4,59.56,1.76,22.66,4.26,45.26,6.15,67.91,2.12,13.89.67,27.95.75,41.92-2.34,28.38-5.71,56.74-11.49,84.61C73,563,72.72,572.1,72.65,581.11h-4a193,193,0,0,1,3.94-37.5c3.24-19.88,5.08-40,7.55-60,2.3-15.7,1.4-31.64,1.3-47.46-2.7-28.47-5.2-57-6.67-85.58-3.08-25-3.86-50.18-5-75.32A36.12,36.12,0,0,0,64,255.61c2.39,9.15,4.6,18.42,4.84,27.95.42,25.86,2,51.69,3.88,77.48.24,22.83,2.9,45.5,4.89,68.21a324.65,324.65,0,0,1-1.4,58.82c-2,16.05-3.19,32.21-5.32,48.25-2,15-5.81,29.65-6.4,44.8H60.64a121.57,121.57,0,0,1,1.93-21.58c5.62-29.43,7.38-59.42,9.74-89.27a457.06,457.06,0,0,0-1.67-63.83c-2.21-24.75-1.75-49.66-4.39-74.38-2.33-20.66-4-41.4-5.76-62.12A45.18,45.18,0,0,0,57,257c-.42,8.11,1,16.1,2.49,24,2.46,12.8,2.3,25.9,3.72,38.81,1.48,13.74,3.06,27.49,3.25,41.33.24,21.72,2.35,43.36,3.73,65,.29,20.28.81,40.62-1,60.85-1.28,15.62-1.77,31.35-4.54,46.79-2.35,15.73-5.16,31.41-6.07,47.33h-6C51,567.55,55.76,554.52,57,541.18c1.67-15.76,3.73-31.46,5-47.26,1.77-17.85,1.51-35.81,1.85-53.71.15-15.73-1.06-31.42-2.17-47.1-1.15-13.55-.52-27.26-3-40.68C55.8,336,53.55,319.54,51.79,303c-1.45-16.17-.86-32.58-4.17-48.52a103.46,103.46,0,0,1-1.24-29c1.43-18.75,1.81-37.55,3.07-56.31.86-12.11-.73-24.21-.42-36.32.29-20.75-.12-41.51-.17-62.26C49.78,47,50,23.42,52.65,0h6.56a267.54,267.54,0,0,0-2.05,34.59c-.05,20.3-1,40.61-.11,60.89.67,21.5-.75,43,.48,64.54.42,9-1.65,17.77-1.8,26.7C55.31,202,54.55,217.23,53,232.4A48.76,48.76,0,0,0,55,252c-1.3-17.68,3.19-35,3-52.71-.24-16.64,1.79-33.21,1.36-49.84-.05-16.16.07-32.32-.33-48.47-1.12-19.8-.56-39.63.09-59.43,0-13.86.34-27.71,1.44-41.54h4.07c0,8.9.09,17.79-.67,26.66C62.73,40.87,65.16,55,65.73,69.21c.93,28.11.09,56.24.52,84.36.12,11.57-1.6,23.05-1.43,34.62A371.29,371.29,0,0,1,61,239.58c5.78-15.44,4.29-32.39,5-48.62,1.35-31.84,1.34-63.7,1.75-95.55,1.1-21.89,1.71-43.87.33-65.78-.48-9.89.68-19.76.75-29.64h4M49.12,0c-.74,8.74-1.33,17.5-1.35,26.29.07,13.42-1.72,26.77-1,40.19,1.57,29.93.12,59.92,1,89.88.5,15.73-1.27,31.41-1.55,47.13-1.15,18.24-2.59,36.68.49,54.8,3.82,24.48.82,49.63,6.09,73.9,1.32,6.6,1.61,13.34,2.18,20,4.07,35.56,3,71.44,4.68,107.13a323.33,323.33,0,0,1-3.7,58.33c-2.17,13.6-1.18,27.62-4.63,41a86.77,86.77,0,0,0-2.51,22.4h-4.1a101.28,101.28,0,0,1,1.13-19.83c2.83-15.81,3.11-31.95,4.36-47.93,1.16-14.28,1.22-28.61,1.44-42.93.07-23.12.29-46.25-.62-69.37-.62-10.06-1-20.15-.85-30.23.38-21.35-3.53-42.42-4.23-63.7-.73-11.15-.49-22.36-1.63-33.47-1.34,7.94-.9,16-1.19,24-2.14-10.06-2.17-20.41-3.21-30.62a201.91,201.91,0,0,1-.69-30.59c.7-26.26,2.18-52.49,3.09-78.75.14-30.43.49-60.86-.08-91.3-.07-9.42-1.27-18.83-.65-28.25C42.4,25.42,44.09,12.74,45,0h4.07M43.65,0c-1.55,17-3.8,34.05-3.8,51.19,0,9.38-.15,18.77-.71,28.14-1.3,22.88-.17,45.81-.56,68.71-.28,31.84-3.09,63.56-4.59,95.36-.81,14,1.79,27.85,2.66,41.76,1.16,21.17,3.61,42.28,3.19,63.51-.33,15.26.89,30.48,1.47,45.71a118.72,118.72,0,0,0,1.87,16.75q.16-31.92.16-63.84c.12-10.25-.62-20.58.89-30.74a608.25,608.25,0,0,1,3.9,66.56c1.51,29.54,1.89,59.12.83,88.69.65,23.58-1.27,47.1-2.59,70.62-.61,12.92-3.52,25.68-3,38.68H36.89c2-30.9,5.67-61.86,3.21-92.85-.77-25.36-3.51-50.58-4.43-75.95C35,393.85,33.23,375.45,33.1,357c-.29-16.12-2.32-32.2-1.8-48.33.69-20.78,0-41.58.22-62.37.28-14.31-1.19-28.57-1-42.89.2-18.39-.64-36.8.33-55.19,1.37-21.87-.7-43.76-2.53-65.54-1-19.34-.2-38.74-1.44-58.07A142.44,142.44,0,0,1,27.7,0h4.23c.22,23.13-.48,46.3.37,69.42,2.21-11.47,2.09-23.23,3.27-34.84A304.47,304.47,0,0,0,37.09,0h6.56M22.55,0c-.59,30.8-.87,61.67,1.71,92.38,2.24,26.8.32,53.7.61,80.54-.36,32.71.29,65.4.85,98.1,1.32,24,0,48.08,1.71,72.07.64,22.12.07,44.28,1.38,66.37,0,17.46,1.35,34.88,2.17,52.33,2.12,27.73.14,55.56,1.22,83.32,1.12,12,.09,24-.46,36h-4.1c.05-38.3-2.39-76.54-2.65-114.84-1.12-29.07-2.63-58.14-2.8-87.25-1-22.57-.73-45.17-1.89-67.73-.79-30.87,0-61.78-1.46-92.62-.62-34.15.16-68.29,0-102.44-.83-23.69-3.64-47.39-2.13-71.1C17.29,30.09,16.5,15,18.21,0h4.34M16,0c-.3,14.75,0,29.54-1.39,44.25C13.28,58.12,16.36,71.89,16,85.76c-.32,20.3-.45,40.59-1.12,60.89q1,63,.82,126C14.35,294,12.32,315.36,14,336.75c1.61,19.88.83,39.89,2.5,59.77,2.24,24.86,3.48,49.79,5.08,74.7.3,17,1.87,34,1.59,51-1,19.64.46,39.29-.62,58.93h-4.3c-.12-14.76.91-29.51.42-44.26-.11-12.94-1-25.83-1.38-38.76-.09-19-1.55-38-2-57-2.27,11.46-1.89,23.23-2,34.87-.17,16.2,3.08,32.21,2.75,48.44-.24,18.9,0,37.81-.13,56.73H8c0-15.22.11-30.44-.13-45.66C7,513.31,5.38,491.21,5.26,469c.09-14.32-1.4-28.58-1.33-42.89.64-16.37-.07-32.76.45-49.13.79-21,1.1-42,.36-62.94-.36-7.15.58-14.25,1.19-21.35.93-19.63,2.46-39.22,2.14-58.9.56-18-1.8-36-1.67-54C5.33,165.06,5.05,150.3,5,135.52,1.91,90.32,6.65,45.16,8.08,0H16M2.82,0C1.51,15,2,30.2,0,45.17V0H2.82M366.13,25.07c.73,12.52-4.79,24.09-6.93,36.17-2.1,13-5.75,26.08-4.06,39.42,1.46,11.64-.78,23.33.38,35s-.59,23.65,1,35.37,3.61,23.37,7.91,34.33c3.9,12.67,10.42,24.75,10.83,38.35.42,12.83,1,25.65,2.22,38.44,1.06,10.06,4,19.76,5.48,29.72,1.35,9-.89,18.07-.74,27.13.11,16.62,2,33.19,1.45,49.82C384,406.57,386.2,424.27,387,442c.61,24.53,4.91,48.73,8.19,73,1.44,12.16-3,24.19-1.34,36.36,1.35,9.84,2.45,19.76,2.12,29.73h-5.58c-2-12.81-3.23-25.76-4.21-38.68.4-21.24.81-42.56-1.37-63.73-1.27-12.4-1.19-24.89-2.2-37.3-.87-12-3.56-23.88-3.17-36,.41-13-1.57-25.82-1.32-38.78.33-12.33-4.25-24.45-1.88-36.76,1.52-7.57,1.88-15.44-.45-22.88-6.28-22.5-10.7-45.59-12.1-69-.42-10.47-5.64-19.83-6.72-30.16-.66-4-.24-8.56-3.08-11.76-1.11,6.23-.68,12.92-3.84,18.57-5.21-7.11-6-16.22-5.16-24.86l5.42,5.49c.05-7.89.53-16.13-2.66-23.51-3-7.13-2.43-15.15-4.78-22.47-3-9.67-2.33-20.09.11-29.8,2.74-10.74,1.88-22.05,4.67-32.78,1.63-6.23,3.54-12.42,4.07-18.89,1.19-13.88,4.54-27.52,4.43-41.51a119.11,119.11,0,0,1,1.36-22.35c3.29,6.81,7.46,13.46,8.61,21.13m.73,80.12c1.19,29.33.75,58.89,5.45,87.94a43.62,43.62,0,0,1-.94,18.58c-2.82-7.22-3.89-15-6.1-22.44-5.34-18.29-3.62-37.63-4.66-56.46.17-10.18.57-20.38,1.44-30.52.75-9.67.13-19.4.9-29.08,2.59,10.43,4.35,21.17,3.9,32M1.49,164.68c1.59,32.25,3.93,64.56,2.29,96.87C2.09,274.73,3.58,288.29,0,301.2V131.86c2.34,10.79,1.57,21.86,1.49,32.82m537.24-18.5c3.82,3.51,5.15,8.94,6.87,13.75,8.08,22.41,5.28,46.81,8.25,70.12,1.35,9.31.87,18.76,2.2,28.07,1.77,12.63,1.71,25.55,4.88,38,1.76,6.77,2.3,13.75,2.68,20.74.42,9,4.1,17.34,5.36,26.21,5,37.61,8.24,75.56,7.42,113.57,0,22.15.4,44.29,1.63,66.41-.3,19.35-1.65,38.71-1.5,58.09h-2.66q0-17.29.4-34.59c.49-14.8-1.55-29.53-1.61-44.32-1.77-24.38-1.07-48.86-1.32-73.29-.13-13-1.93-25.84-2.66-38.78-.85-13.84-2.21-27.87-7.13-40.86-4.31-11.29-8.31-23-8.88-35.23-.52-10.83-3.24-21.33-4.87-32-1.39-7.47-3.1-15.14-7.14-21.57-3.08-5-10.94-2.66-12.87,2.37-4.64,9.2-10.48,18-12.69,28.29-2.18,9.39-3.76,18.94-5.85,28.36C503,345.9,500.08,373,496,399.8c-2.66,18.12-3.09,36.53-6,54.62-2.71,17.06-2.57,34.41-3.68,51.62-1.88,16.31-4.14,32.58-6.14,48.9-1.08,8.69-.15,17.45.18,26.16h-6.55c.13-13.81.46-27.64,2.45-41.31,2.5-17.5,3.33-35.18,4-52.84,1.35-17.38,4.46-34.56,5.71-52,1.27-20.34,4.95-40.37,6.77-60.64,2.7-20.64,3.69-41.48,6.73-62.08q2.16-16.36,4.58-32.67c1.55-10.17,2.12-20.56,5.09-30.44,4.06-13.73,8.73-27.37,10.81-41.62.85-5.31-.33-10.6-.89-15.86-.78-4.93,2.58-9,4.48-13.21q-2.38-5-4.95-9.93A165.33,165.33,0,0,1,529,147.75a6.37,6.37,0,0,1,9.78-1.58m-17.5,34.7c-2.54.94-5.29,3.47-8.09,2-1.73-.64-2.09-2.66-2.77-4.18,3.12-3.94,10.33-3.87,10.86,2.19M131.36,203.31c2.38,10.52,6.43,20.77,6.28,31.75a88.59,88.59,0,0,0-6.28,17.11c-2.3-4.34-6.83-7.57-7.32-12.78a61.66,61.66,0,0,1,2.3-28.35c.9-3.06,3-5.48,5-7.73m213,15c3.84,2.48,4.74,7.47,7.61,10.83a27.12,27.12,0,0,0,5,2c.66,7.29-1.44,14.92,1.44,21.9,4.84,13.12,6.23,27.24,10.49,40.55,2.09,7.4,5.49,14.4,6.61,22.07,1,6.2-2.34,11.73-4,17.43-1.26,3.4.54,6.85,1.31,10.14,1.84,5.76,1.55,11.9,1.57,17.89,0,9.73,1.48,19.37,1.57,29.08.16,14.31,2.1,28.49,4,42.63,1.45,10.67,1.06,21.48,1.88,32.21,1.24,16.53,2.82,33.05,3,49.66.16,10.5-1.93,21-.77,31.46,1.26,11.65,2.66,23.29,3.86,34.95h-9.21c-1.39-7.61-2.72-15.22-3.62-22.91-1.63-19.15-6.63-37.73-9.29-56.73C364,487,358.71,473.34,356.33,459c-1.44-8.33-4-16.38-5.7-24.66-2-10.18-6.47-19.58-10.52-29-1.71-4.18-4.19-8-7.91-10.53-1.8,2.12-4.09,4-4.93,6.82-1.47,4.4-1.73,9.49-5.16,12.88s-3.35,8.79-4.33,13.38c-1.12,7.39-6.46,12.92-8.6,19.91a173.36,173.36,0,0,1-7.06,19c-4.76,10.74-4.27,22.84-7,34.15-5.82,26.34-3.25,53.47-2.88,80.22h-6.4c1-9.89,2.21-19.83,1.92-29.8q-.26-8.63.33-17.28c.71-10.51-.36-21-.4-31.55-.7-18.11,2.38-36.1,1.87-54.21q.59-26.27-.09-52.56c-.48-15.77,3-31.31,2.61-47.07.37-15.12.74-30.73,6.27-45,3.93-10,5.67-20.85,10.3-30.59,4.91-10.32,5.41-22.15,9.95-32.63,4.47-10.7,5.2-23.94,14.48-31.74a77.47,77.47,0,0,0,11.28,9.59m-6.46,46.61c-2.68-4.29-4.46-9.16-7.35-13.32l-2.05.33c-3.68,8.38-5.34,17.75-10.38,25.49C308,293,300.27,310.52,297.74,329.25c-1.65,13.63-.41,27.41-1.9,41-.93,15.4-3.63,30.67-3.16,46.16.48,9.29-.91,18.65.25,27.87,3.4-16.42,2.53-33.34,4.33-50,2-20.71,1.8-41.55,3.15-62.31,1.93-13.13,4.7-26.91,12.91-37.48,3.43-4.3,5.78-9.66,10.11-13.09,3.49-2.79,7.86-.94,11.42.58s7.49,2.95,10.6,5.55c2.67,3.72,4.15,8.32,7.43,11.58,5.15,5.34,11.16,10.53,13.23,18.13,1.34,3.79-1.1,7.37-2.18,10.87,3.82-2.92,6.65-7.51,5.28-12.65-2.33-7.86-9.13-13.17-11.89-20.85-3.24-9.23-5.4-19.23-11.51-27-1.83-2.59-5.2-2.28-7.9-2.78m-2.53,24.9c-3.1-2.88-8-1.4-10.94,1.05-11.31,10.92-17.1,26.79-18.64,42.55-.85,20.78-1.65,41.62-4.13,62.28-1.26,8.32-3.78,16.63-2.42,25.14,6.53-23.93,6.08-49.12,10.05-73.5.62-8.63,1-17.31,2.09-25.9,1.23-10.46,9.43-17.83,16.77-24.1,4.43,2,9.22,3.82,12.69,7.5A34.27,34.27,0,0,1,347,323.73c.07,8-1.46,16.08.65,23.88,1.84,7.91,7,14.43,8.9,22.31,3.69,16.78,3.07,34.24,7.06,51,3.86,17.39,5.57,35.18,7.8,52.85,2.51,9.46,1.18,19.57,4.19,28.88.57-7.54-1-15-1.35-22.46-.57-11-.89-22.08-2.9-32.92-1-5.62-1.77-11.27-2.33-16.95-.94-9.45-3.76-18.55-4.83-28-1.87-13-1.61-26.3-5-39-2-8.7-5.52-17-7.12-25.75.45-7.11,9-10.61,9.3-17.88-.44-4.46-5.08-6.09-8.06-8.43-8.07-5-11-15.11-17.91-21.42m-3.53,19.45A10,10,0,0,0,322,314.6c-3.15,5.77-2.39,12.66-3.12,19-.66,6,.05,11.93.08,17.89.11,5.45-3.45,10-3.84,15.36A248.75,248.75,0,0,1,311,393.05c-2.21,10.81-3,21.9-5.91,32.57-1.79,6.83-5,13.21-6.18,20.23a21.12,21.12,0,0,0,4.18-7c5.41-14.85,8.23-30.52,11.71-45.92,1.38-6.09,5.91-10.53,8.49-16,2.16-4.07,5-9,9.8-9.6,7.38.25,11.44,7.57,14.39,13.66,5.78,10.21,5.71,22.41,9,33.52A143.6,143.6,0,0,1,360.95,440c.78,8,3.31,15.57,4.26,23.49,1.11,7.53,1.07,15.33,3.68,22.55.61-11.25-1.83-22.33-2.82-33.5-2.21-15.17-4.37-30.37-8.06-45.23-2.8-11.18-2.21-23-6-34-2.43-8.76-8.44-15.8-11-24.49-2.42-7.48,2.36-14.83,1.48-22.41a18.16,18.16,0,0,0-10.73-17.2m29.95,19.63c-1.23,1.2-3.74,2-2.86,4.29,1.2,5.33,3.49,10.35,4.5,15.75,2.46,10.14.85,20.78,3.41,30.91,2.49,15.48,3.39,31.28,7.34,46.5-1.11-22.11-4.37-44-6-66.05-1.11-10.69-4.95-20.78-6.42-31.39M183.31,260.66c1,26.12,3.31,52.18,4.5,78.28.09,17.56,1.64,35.06,1.53,52.63q1.89,36.61,1.31,73.31c-.15,11.83,1,23.63,1.81,35.42,1.54,26.91,3.53,53.82,3.33,80.8h-9.42c.07-8.76.21-17.53-.3-26.27-1.35-21.1-1.8-42.27-4-63.3-1.42-16.7-3.66-33.37-3.6-50.16.29-29.08-4.2-58.07-2.2-87.15.6-7.49,1.16-15,.62-22.51-2.82,14.18-3.07,28.81-3.67,43.24s3.1,28.52,2.79,42.92c-.21,17.27,1.34,34.48,2,51.72,1,28.43,3.19,56.81,3.36,85.27.38,8.77,1.26,17.52,2.2,26.25H180c-.2-10.64.17-21.35-1.26-31.92-1.59-12.36-3.4-24.75-3-37.26.93-22.79-5.78-45-5-67.81a335.14,335.14,0,0,0-3.28-55.57c-3.72,11.41-.46,23.36.05,35,.66,14.22,1.2,28.47,2.21,42.68,1,11.08,2.71,22.08,3.45,33.19.79,10.45-1.95,20.84-.68,31.3,2,16.76,2.88,33.64,4.93,50.39h-9.59c-1.75-13.31-1-26.75-1.16-40.12-.42-22.47,1.24-45.23-3.1-67.39C160.79,458,161,442,161.12,426.12c.12-8.76-1.51-17.41-1.73-26.15-.22-8.43,3.35-16.2,5.44-24.17,4.88-17.52,3.86-36,6.67-53.85,1.72-10.79,4-21.5,4.89-32.42,1.8-20.46,4-40.9,4.13-61.47,2.79,10.63,1.94,21.72,2.79,32.6M82,249.41c1.56,6.34-7.25,6.83-10.57,3.63,0-1,.08-2.86.09-3.83,3.32-1.22,7.59-2.88,10.48.21m5,32.76c0,15.57,3,30.91,6.87,45.88,3.16,11.68,4.89,23.69,6.91,35.61,2.29,13.38,1.4,27.22,5.07,40.34,4.88,17.53,2.79,36,3,53.93,2.55,21.36-2.12,42.63-5.74,63.55-3.19,20.23-11.59,39.14-13.61,59.62H83.36c1.56-7.34,2.29-14.84,3.93-22.18,2.5-12.44,6.64-24.49,8.35-37.1,2-14.36,4.78-28.68,5.12-43.24a563.11,563.11,0,0,0-3.28-74.4c-1-8.54-.78-17.14-1.57-25.69-1.85-19.89-6.69-39.31-9.93-59a382.66,382.66,0,0,1-2.26-64.07c3.49,8.38,2.58,17.79,3.29,26.7m-6.9-.08c-.15,9.82,2.27,19.41,2.79,29.19a104.52,104.52,0,0,0,3.2,20.64c2.41,9.55,2.42,19.48,3.89,29.18,1.64,10.94,2.08,22,3.16,33.05C95,417.71,99,441.23,97.59,464.94a605.33,605.33,0,0,1-7.49,69.47c-3.6,15.45-8.39,30.73-9.54,46.7H76.33c1.67-23.91,8.6-47,10.65-70.8,2.63-19.63,4.63-39.39,4.31-59.26.7-15.8-3.16-31.3-2.87-47.08.24-11.57-3.07-22.72-4.29-34.13-1.2-8.41-1.77-16.89-2.21-25.37-.34-8-3.19-15.5-3.78-23.42-.4-5.06-.33-10.14-.62-15.22-1.31-15.44.05-31,1.75-46.32,2.06,7.37.69,15.07.83,22.59m457.89-5c6.38,7.61,8.35,17.75,9.64,27.48,3,14.82,4.43,30.23,10.66,44.09,5.78,13,7.72,27.42,8.88,41.56.32,14.35,2.09,28.6,2.14,42.95,1.06,24.38.41,48.81,1.89,73.18.2,14.69,2.18,29.34,1.15,44-.67,10.24-.41,20.5-.49,30.75h-8.39a236.14,236.14,0,0,1,.5-24.86c1-11.55-.63-23.08-.4-34.63.22-12.49-1.65-24.87-1.65-37.36-.49-24.09-1.75-48.21-4.56-72.13-1.11-11.07-2.17-22.19-4.52-33.05-1.8-7-4.22-14.12-8.93-19.54-4.3-4.67-12.16-2.87-15.36,2.28a103.65,103.65,0,0,0-14,36.54c-2.33,12.7-6.08,25.12-7.21,38-.9,10.43-1.41,20.92-3.29,31.24-2.43,13.71-4.6,27.52-5.15,41.48-.36,10.13-3,20-3.41,30.09-.28,7.2-2.1,14.16-3.44,21.18-1.31,6.88-.3,13.93,1.15,20.7h-9.47a111,111,0,0,1,0-30.69c2.13-16.48,4.39-33,6-49.5,1-12.33.74-24.77,2.66-37,2.25-14.81,2.88-29.82,4.88-44.66C501.45,384.4,508,350,514.67,315.57c1.44-7.43,3.36-14.93,7.43-21.29,3.37-5.12,5.42-11,8.24-16.4,1.26-3,5.94-3.74,7.63-.83m-203.8,38.77c3.64,3.29,3.81,9,4.41,13.63.79,6.71-4.93,11.18-9,15.3-1.83-7.32-5.44-14.4-5.3-22.09,1.27-4,5.58-8.58,9.93-6.83M1,368c-.16,12.3,1.06,24.69-1,36.87v-53A153,153,0,0,1,1,368m544.23-.26c5.79,14.42,7.51,30.14,9.51,45.51a627.59,627.59,0,0,1,4.95,72.39c.25,15.12,3,30.15,2,45.3-1.06,16.68-.58,33.43-.61,50.14h-4.22c2.26-24.76-.37-49.62-3.2-74.2-.61-4.54-1.84-9-2.87-13.38-2.37-9.85-1.44-20.13-3.06-30.09-2.63-16.09-3.62-32.62-9.17-48-4.26,1.43-9.19,2.75-11.51,7.21-8.27,14.46-6.61,32-11.28,47.66-4.91,15.62-4.64,32.27-8.06,48.22-1.61,12.08-4.62,23.9-6.52,35.91.12,8.94,1.47,18.07-1.73,26.7h-2.18c-1.3-8-3.18-16.2-1.93-24.39,1.88-13.06,5.45-25.89,5.71-39.17.17-8.77.36-17.58,1.68-26.28,2.17-14.28,3.36-28.71,5.12-43a249.88,249.88,0,0,1,15.52-69.57c2.29-5.53,3.87-12.25,9-15.66,4.5-1.29,11.07-.5,12.87,4.77m-3.93,69.11c1.14,8.58,1.89,17.21,3.11,25.77,1.36,9.74,1,19.69,2.75,29.37,7,29.06,8.11,59.25,7,89.07h-4c-.94-13.23,3.48-26.62-.32-39.6a122.6,122.6,0,0,1-2.83-20.71c-.6-8.84-4.09-17-6-25.54a70.57,70.57,0,0,0-5.75-16.84c-5,4.91-7.24,12-10.21,18.26-5.93,13-7.08,27.62-10.7,41.41-2.5,9.31-2.69,19-3.17,28.58l-6,.76a105,105,0,0,1,1.6-24.84c3-17.51,5.37-35.14,7.84-52.74C516.13,479,520.89,469,521.22,458c.41-10.36,4.14-20.09,7.25-29.79,1-3.43,3.48-6,6-8.14,4.83,4.1,5.75,10.85,6.81,16.85m-207-13.84c6.89,3.64,10.2,11.74,11.42,19.34,1.88,11.71,8.66,21.81,10.11,33.62,2.16,16.2,1.71,32.89,6.32,48.67,3.16,10.94,6.63,21.89,7.92,33.29.9,7.8,1.91,15.65,4.26,23.13H363.7A171.62,171.62,0,0,1,357.32,552a142.07,142.07,0,0,0-4.08-22.22c-2.26-8.67-1.4-17.74-2.37-26.56A125.3,125.3,0,0,0,337.3,462c-3-6.32-11.5-7.07-16.8-3.74-2.29,2.16-2.83,5.59-4,8.44-2.54,7.93-8,14.57-9.62,22.86-1.52,7.62-1.69,15.48-3.17,23.13-4.3,22.51-3.15,45.58-3.21,68.39h-4c-2.25-14.72.69-29.48-.08-44.26-.3-10.19,1-20.31,1.26-30.48.57-12.77,1-26,6.12-37.83,5-9.73,6.6-21.36,14.07-29.55,3.28-3.68,4.49-8.63,5.65-13.35,3.52-1.12,7.05-2.86,10.81-2.59M2.63,471.81c-.13,18,1.85,35.95,1.56,53.95.09,18.47-1.81,36.89-1.5,55.36H0V445.95a116.41,116.41,0,0,1,2.63,25.86m338.9,21.93c3.59,10.9,3.77,22.56,6.09,33.77,1.88,10.46,5.59,20.63,5.59,31.39a207.54,207.54,0,0,0,.93,22.21H343.79c-4.55-8.58-3.94-18.83-7.63-27.75-3.17-7.68-2.71-17.24-8.4-23.55-4.84-1-6.93,5.2-8.33,9-3.54,14.08-8.44,27.83-10.2,42.34h-6.48c.69-15.27,3.31-30.4,2.88-45.73,0-11.66,3.28-22.9,5.74-34.16,1.15-5.73,5.12-10,9-14,4.35-4.25,7.25-9.74,9.87-15.23,4.67,6.68,8.88,13.82,11.34,21.74M148.45,517.09c3.67,21.14,5.32,42.59,6.61,64H110.69c3.78-10.08,6.77-20.52,11.14-30.36,3.78-8.69,8.84-17,9.88-26.7,1.27-7.69.46-17.09,7.08-22.37a24,24,0,0,1,9.66,15.41m52.25,13c.73,17,1.87,34,1.8,51h-4c-.17-14.78-1.44-29.5-1.43-44.28,0-9.9-2-19.76-.89-29.65,4.13,6.82,3.74,15.17,4.5,22.9M538.8,514.3c3.65,7.82,4.51,16.66,4.75,25.24.3,13.86.83,27.73.11,41.58h-29c-.4-8.88-.29-17.9,2.22-26.48,3.19-11,3.19-23.23,9.7-32.86,2.54-3.82,4.92-7.84,8.19-11,2.41-1,3.07,2,4,3.56M336.22,581.11H314.28c1-4.76,1.06-10.11,4.42-13.89a43,43,0,0,0,7.65-13.38c4.92,8.43,5.44,18.64,9.88,27.27Z"
                  fill="#d3c8be"/>
            <path d="M588.44,0c.24,19.45.92,38.93-.08,58.37A96.25,96.25,0,0,1,585,38.57C584,25.75,583.28,12.88,583.3,0h5.13m-9.06,0c-.49,7.39-1.2,14.79-1,22.21.13,10,3.32,19.61,4.37,29.51,3,26.15,2.18,52.6,5.61,78.71,2.08,13.79,2.16,27.8,2.26,41.73-.77,26.11-.62,52.23-.86,78.34-1.73,19-.77,38-1.88,57-1,17-.4,34.08-1.07,51.11-3-17.39-2-35.16-2.45-52.74-.94-22.25,2.84-44.37,2.21-66.62-.24-12.89-2.16-25.69-1.92-38.62a417.49,417.49,0,0,0-2.26-47.25c-1.37-14-6.92-27.16-8.41-41.16-1-7.73-.85-15.57-1.52-23.33-.7-8-2.86-15.8-3.48-23.81-.83-10.22-.12-20.48.86-30.66.74-7.5.85-15.11,2.71-22.46.71,10.81-1.12,21.56-.77,32.36,0,13.45,2.94,26.63,3.66,40,.67,11.91,1.34,23.87,3.08,35.68,1.26,8.61,5.69,16.31,6.54,25,.78,7.17,1.15,14.44,3.23,21.38.85-11.65.82-23.54-2.24-34.85-6.81-27.48-4-56.08-7.3-84-3.13-15.65-2.29-31.71-2.17-47.58h2.83m-16,0c.67,20.8-2.28,41.52-1.44,62.33.67,8.65,4.1,16.74,4.85,25.39,1.26,13,2.94,26,5.37,38.81,1.48,8.8,4,17.38,5.2,26.22a724.44,724.44,0,0,1,4.06,110.43c-3.19-40.66-1.15-81.87-8.53-122.14-2.53-15.32-4.74-30.7-7.61-46-1.68-9.16-5.16-17.92-6-27.26-1.23-12.8-1.48-25.8.49-38.53,1.44-9.69,1.79-19.49,2.24-29.28h1.34M557,0c-.52,8.9-.58,17.86-2.2,26.63-1-8.84-.81-17.75-.63-26.63H557m-6.73,0c.74,35.31-2.3,71.71,8.74,105.73,2.2,6.88,2.78,14.11,3.85,21.22,1.1,7.35,3.92,14.24,5.52,21.45,5.58,26.16,5.52,53.1,6.18,79.75,1,13.86.36,27.81,1.69,41.66.66,8.4,2.47,16.64,3.07,25.07-6.15-19.79-4-41-5.83-61.4-1.57-15.51,0-31.14-1.65-46.64-1.64-15.9-2.35-32.27-8.16-47.26-3.85-10.11-2.59-21.49-6.8-31.5-3.6-8.87-5.62-18.28-8-27.55-7.55-26.09-4.6-53.67-5.2-80.52h6.63M514.53,0c.05,10.07.22,20.13.61,30.19.37,7.42-3.41,14-4.58,21.16-1.24,10.11-2.34,20.24-4,30.3C505.2,95,499,107,497.11,120.28A57.59,57.59,0,0,1,490,141.42c-.93-23.15.62-46.34,2.14-69.43.74-11.65-2.69-23.3-.32-34.88,2.37-12.23,1.57-24.73,1.68-37.11h4.13c3.41,16.69-2.73,33.37-1.31,50.17a200,200,0,0,0,5.46-23.47c1.6-8.85,0-17.83-.57-26.7h8c-1.83,7.8-.89,15.94-2.28,23.81-1.67,9.44-4.5,18.58-6.44,28-5,21.56-5.77,43.86-6.71,65.93,3.28-8.26,6.53-16.58,8.7-25.25,2.74-11.06,1.24-22.82,4.84-33.69,2.65-7.94,2.28-16.49,4.18-24.6,2.63-11.24.62-22.9-.83-34.16h3.84M484.21,0c-.82,19.84,0,39.71.21,59.56A655.67,655.67,0,0,1,483.23,147c-.81,8.36-1.81,16.76-1.19,25.17s2.8,16.84,1.65,25.35c-.86,6.57-2.09,13.09-2.54,19.73-1.32,13.53-.37,27.16-1.67,40.71-1.5,17.56.57,35.31-2.42,52.74-2.25,19.55-4.46,39.13-5.19,58.8-1.32,14.8-1.11,29.73-3.37,44.44-2.83,18.39-.91,37.05-2.14,55.55-.55,10.46-.69,21-2.06,31.35-1.63,15.68-2.55,31.42-3.89,47.13a65,65,0,0,1-1.84,9.95c-.78-8.81.38-17.64.9-26.44,1.27-22.68,4.1-45.22,4.83-67.93.38-25.43,1.3-50.85,2.91-76.24.53-14.1,1.38-28.18,2.94-42.2,1.47-17.26,4.92-34.35,4.87-51.74,0-18.51,3-36.86,2.69-55.37a288.22,288.22,0,0,1,3.2-39.24c1.75-10.67-1.67-21.24-1.11-31.92.91-14,.54-28.14,1.4-42.2-.09-20.8-2.33-41.54-2.17-62.34,0-12.72-.83-25.47.48-38.16.83-8,1.69-16,2.17-24.1h2.54M473.87,0c-.29,10.13-1.38,20.26-.63,30.38.78,11.35,0,22.75.94,34.08,1.5,18.14.74,36.35.87,54.53.17,17.21-.89,34.55,2,51.59,2.08,12,2.62,24.19-.09,36.08-3.65,42.44-5.17,85.06-8,127.58-.19,5.9-.45,11.91-2.5,17.49,0-20.42,2.63-40.76,3.05-61.18.13-13.28,1.36-26.51,2-39.78.73-13.56,0-27.22,1.8-40.69,1-7.19,2.16-14.44,1.39-21.72-2.34-19.8-4.21-39.72-3.56-59.69-.11-17.95,1.64-35.86.61-53.81-1-13.6-.36-27.27-1.55-40.86-1-11.3-.12-22.66-.18-34h3.84m-7.94,0c-1.14,29.06-.3,58.14.78,87.18-1.61,37.33-.89,74.71-1.43,112.06-.29,19.79.94,39.57-.2,59.33-1.24,19.38-.65,38.82-1.75,58.22-1,17,.5,34-.89,50.9C461,382.41,462,397.22,461,412c-1.51,20-.64,40.14-2.7,60.11a262.24,262.24,0,0,1,.36-28.47c1-13.61.57-27.29.93-40.93.24-19.92,1.36-39.84,1.52-59.76-.37-16.46.34-32.92.91-49.35-.71-60.21-.36-120.46-.78-180.67.49-19.67-.89-39.34-.49-59,1-17.95,1.3-35.92,2.51-53.86h2.7M453.59,0c.48,13.25,0,26.5-.44,39.74.82,17.18-.81,34.37.17,51.54.48,10.64-.77,21.24-.86,31.86,0,24.48-2.76,48.85-2.63,73.33.13,21.22-.53,42.45-1.15,63.65.49,27.26-1.15,54.47-1.87,81.7-2,22.47-.33,45.05-1.54,67.56-1.84,27.24-.21,54.57,0,81.85-.41,11-1.1,22.07-.82,33.14.12,18.91-.71,37.83-.17,56.74h-3.4c.5-13.35-.4-26.76,1.28-40.05s-.41-26.82.12-40.24c1.72-27.81-1.14-55.69.34-83.51,1.32-25.61-.26-51.29,1.71-76.87.18-18,1.48-36,1.37-54,.86-36-.46-72,1.73-108,1.18-16.12.89-32.29,1.4-48.45,1.22-23,1-46.1,1.32-69.15.4-20.27,1-40.53.66-60.8h2.74m-9.34,0c-.25,13.39.58,26.83-.63,40.19-1.73,38.27-2.83,76.57-4.79,114.83-1.36,14.71-.82,29.51-1.87,44.25-.85,29,.46,58.1-1.43,87.08-.66,13.38-.11,26.79-.34,40.18-1.08,54.14.16,108.31-.69,162.45-.09,30.72-2.58,61.43-.61,92.13H430c.37-14.42-.21-28.85.66-43.25,1-30.79.65-61.6,1-92.4.66-19,1.11-37.92.37-56.88-.37-10.06,0-20.12.29-30.18,0-38.26,1.79-76.51.69-114.77,1.28-25.68-.25-51.48,2.83-77.05,2-43.53,3-87.11,5.56-130.61.05-12-.44-24,.19-36h2.67M433.84,0c-.52,16.6-.18,33.21,0,49.81.12,11.18,1.46,22.35.54,33.52-1,13.12-.69,26.27-1.15,39.42-1,21.85-3.08,43.63-4.88,65.4-1.18,12.92.5,25.89-.09,38.82-1,21.18-3.16,42.34-2.46,63.56.73,21.89-.52,43.8.69,65.68-.05,14.43,1.1,28.86.15,43.28a165.5,165.5,0,0,0,.05,21.28c1,18.4-.54,36.79-.58,55.19.24,21.66-.37,43.35.07,65,.24,13.38-1,26.73-.36,40.11h-2.46c.16-11.08,0-22.17.42-33.25.5-12.84-.74-25.68.15-38.52,1-17.57.12-35.18.65-52.77.63-21.22-.63-42.49.5-63.7.45-8.29,0-16.56-.12-24.85,0-25.9.15-51.81-.61-77.7.33-17,.29-34,1.51-50.87,1.32-20.34-.78-40.71.4-61,1-17.16,1.87-34.33,3.25-51.46,1-11.84.62-23.76.58-35.64.85-30.43,1.08-60.89-.12-91.32h3.89m-8,0c-.54,28.11,1.77,56.31-1.1,84.33-.65,12-1.4,24-1.52,36-.15,13.45-2.12,26.77-2.69,40.19-1.93,23.44-.66,47-1.72,70.48-.89,18.9-.4,37.84-.54,56.76,1.6,42.86,1.36,85.77.93,128.66-.2,28.57,1.12,57.2-.87,85.73-1,14.49.25,29-1,43.5a188.58,188.58,0,0,0,.32,35.42H412.9c.33-17.09-1.11-34.19.11-51.26.62-8.73,1.2-17.46,1.1-26.2-.17-13,1.77-25.85,1.26-38.8-.21-6.92-1.1-13.78-1.28-20.68-.41-11.58,1.59-23.05,1.5-34.62-.08-18.43-.44-36.88.75-55.29.94-14.33-.94-28.63-.86-42.95-.81-35,.53-70.11-.08-105.15-.38-22.43.75-44.84,1.93-67.22,1.75-16.74,3.48-33.5,4.33-50.32.61-29.53,3.7-59.09,1.53-88.62h2.67m-8.43,0c0,17.49,1.8,34.95,1.43,52.41-2.34,21.31-2.55,42.78-4.34,64.14-1.8,19.69-3.68,39.39-4.41,59.15-.21,26.3-2.2,52.56-1.41,78.88-.05,31.56-1.23,63.17.69,94.71.44,9.38-1,18.73-.22,28.12a284.39,284.39,0,0,1-.34,44.52c-1,13,.65,25.86,1,38.78s-1.67,25.82-1.11,38.77c.71,19.92,1.69,39.88.49,59.81a143.16,143.16,0,0,0,.58,21.82h-2.58c-3.86-22.39-1.8-45.2-2.28-67.78.11-18.25-1.35-36.55.56-54.75.78-7.1,0-14.23-.62-21.29-.91-9.75,1.56-19.37,1.46-29.11,0-12.48-1.69-24.89-1.56-37.37.26-33.68,0-67.35-1-101,0-10.17,1.83-20.21,1.93-30.38.25-13.39.32-26.79.59-40.17.28-15.81-1.31-31.71.82-47.43,3.13-20.41,3.28-41.16,5.86-61.64,1.72-13.41,1-27,1.48-40.44A402.27,402.27,0,0,0,413.29,0h4.13M402.09,0a252,252,0,0,1,4.72,45.58c-.73,21.29-4.7,42.38-4.56,63.73-.15,12-.7,24-.33,36,.2,16.69,2.7,33.54-.4,50.11a349.43,349.43,0,0,1-2.41-36.64c.6-12-.93-24-.11-35.92.78-13.37.19-26.76.09-40.12.37-20.6,1.68-41.34-1-61.85Q396.74,10.47,396.39,0h5.7m-12,0c.79,8.76,2.17,17.46,2.8,26.23.62,8.36-.4,16.69-1.07,25-1.2,16.59.3,33.19.78,49.77-.15,15.68-.37,31.37-.09,47,.25,14.89-.87,29.86,1,44.68,2.09,15.41,2.49,31,3.71,46.5.82,9.27,2.38,18.48,2.35,27.82,0,48,.28,95.94,0,143.89,0,17.83,3.39,35.52,2.66,53.37a79.54,79.54,0,0,1-2-14.49c-.54-11.14-2.16-22.19-2.34-33.36-.33-21.67.65-43.33.29-65-.26-13.36-.49-26.74-.41-40.12.25-15.72-1.06-31.39-1.11-47.1-1.4-26.72-3.41-53.41-4.79-80.12-.59-15,.38-30.12-.86-45.15-.75-9.21,1-18.44,0-27.66-.66-7.1-.93-14.21-.9-21.33.08-13-2.14-25.86-1.07-38.82,1.59-17,0-34.09-.36-51.12h1.35M379.24,0c.66,9.82,2.74,19.45,4,29.19,1.72,14.37-3.49,28.43-2.1,42.79,1.31,16.09,2.67,32.21,2.2,48.38-.33,12.59,1.42,25.14.9,37.73-1.44,20.28,2.91,40.32,3.54,60.5a235.2,235.2,0,0,0,1.43,29c1.3,19.92,3,39.88,1.95,59.87-2.69-17-5.15-34.2-5.16-51.51-1.32-18-.57-36-2.31-53.95-.87-10.4-3.23-20.64-3.41-31.12-1-15.88.61-31.77-.29-47.65.07-18.53-1.22-37-2.51-55.47-1.1-13.26,3.45-26.32,1.65-39.57C377.71,18.72,375.78,9.37,374,0h5.25M363.43,0c2.45,12.45,7.91,24.45,7.26,37.4-.19,8.87-3.56,17.31-3.29,26.22.21,10.21,2.66,20.21,3,30.41-.5,24.06,3.64,47.94,2.5,72-.29,11.05,1.18,22,3.06,32.89,1.44,7.87,1,15.91,1.06,23.88,0,9.75,2.87,19.22,2.69,29-.15,14.15.37,28.4,3.06,42.32,2.16,11.64,4.54,23.55,2.47,35.41-2.16,12.33.71,24.7.71,37.07s.66,24.95.53,37.41c-.36,14.4,2.74,28.57,2.62,43,0,17.34,4.59,34.11,6.31,51.25,1.94,27.69,7.87,55,7.21,82.91H396c.33-10-.77-19.89-2.12-29.73-1.61-12.18,2.78-24.2,1.34-36.36-3.28-24.24-7.58-48.44-8.19-73-.81-17.78-3-35.47-3.28-53.25.52-16.63-1.35-33.21-1.45-49.82-.15-9.06,2.09-18.08.74-27.13-1.51-10-4.42-19.66-5.48-29.72-1.2-12.78-1.8-25.61-2.22-38.44-.41-13.6-6.93-25.68-10.83-38.35-4.3-11-6.23-22.66-7.91-34.33s.15-23.6-1-35.37,1.07-23.34-.38-35c-1.69-13.34,2-26.38,4.06-39.42,2.14-12.08,7.66-23.65,6.93-36.17-1.15-7.66-5.32-14.32-8.61-21.13a119.11,119.11,0,0,0-1.36,22.35c.11,14-3.24,27.63-4.43,41.51-.53,6.46-2.45,12.66-4.07,18.89-2.79,10.72-1.93,22-4.67,32.78-2.43,9.71-3.06,20.13-.11,29.8,2.34,7.32,1.79,15.34,4.78,22.47,3.19,7.37,2.71,15.62,2.66,23.51l-5.42-5.49c-.89,8.65-.05,17.75,5.16,24.86,3.16-5.65,2.72-12.34,3.84-18.57,2.84,3.2,2.42,7.76,3.08,11.76,1.08,10.33,6.3,19.69,6.72,30.16,1.4,23.42,5.82,46.52,12.1,69,2.33,7.44,2,15.32.45,22.88-2.37,12.31,2.21,24.44,1.88,36.76-.25,13,1.73,25.82,1.32,38.78-.38,12.11,2.3,24,3.17,36,1,12.41.93,24.91,2.2,37.3,2.18,21.17,1.77,42.49,1.37,63.73,1,12.92,2.25,25.87,4.21,38.68h-2.45c-1.2-11.66-2.61-23.3-3.86-34.95-1.17-10.5.93-21,.77-31.46-.22-16.6-1.8-33.12-3-49.66-.82-10.74-.42-21.54-1.88-32.21-1.92-14.14-3.86-28.32-4-42.63-.09-9.71-1.57-19.36-1.57-29.08,0-6,.26-12.13-1.57-17.89-.77-3.29-2.57-6.74-1.31-10.14,1.68-5.7,5-11.23,4-17.43-1.12-7.66-4.52-14.67-6.61-22.07-4.26-13.31-5.65-27.44-10.49-40.55-2.88-7-.78-14.61-1.44-21.9a27.12,27.12,0,0,1-5-2c-2.87-3.36-3.77-8.36-7.61-10.83a77.47,77.47,0,0,1-11.28-9.59c-9.29,7.8-10,21-14.48,31.74-4.54,10.47-5,22.3-9.95,32.63-4.63,9.74-6.38,20.56-10.3,30.59-5.53,14.23-5.9,29.83-6.27,45,.34,15.76-3.08,31.3-2.61,47.07q.65,26.27.09,52.56c.52,18.11-2.57,36.1-1.87,54.21,0,10.52,1.11,21,.4,31.55q-.58,8.63-.33,17.28c.29,10-.89,19.91-1.92,29.8h-1.34c.52-5.5,1.06-11,1.24-16.53.79-42.42-1.23-84.9,1.11-127.29.66-14.75-1.85-29.44-.65-44.18,1.62-18.07.4-36.33,3.36-54.29,2.06-11.44,1.92-23.3,5.4-34.44,9.47-31.67,20.62-62.73,30.48-94.25,1.75-6.43,10.7-3.69,13.27-9.58,3.94-6.57,2.69-14.71,2.79-22.05,0-8.25.32-16.82-3.27-24.43-4.47-9.74-2.21-20.78.74-30.61,3.15-10.09,1.93-20.92,4.47-31.13,1.28-5.78,3.41-11.33,4.77-17.09,1.77-7.43,1-15.14,1.19-22.7.25-17.67,5-34.87,5.19-52.54h8.85m3.43,105.19c.45-10.82-1.31-21.56-3.9-32-.77,9.68-.15,19.41-.9,29.08-.87,10.14-1.27,20.34-1.44,30.52,1,18.83-.69,38.17,4.66,56.46,2.21,7.43,3.28,15.22,6.1,22.44a43.62,43.62,0,0,0,.94-18.58c-4.7-29.06-4.26-58.61-5.45-87.94M344.21,0a122,122,0,0,1-6.92,61.75c1.79,2.64,4.6,5.2,4.23,8.76-.69,6.5-5.18,11.5-7.41,17.42-2.2,4.84-3,11.17-8.24,13.56-1.07-4.23-1.4-8.81-3.49-12.69-3-4.68-7.61-8.63-8.23-14.58-1.3-9.95.09-20-.54-30-.25-9.3-3-18.26-3.43-27.53-.26-5.56-.36-11.12-.59-16.69h5.3a188.94,188.94,0,0,0,.74,22.57C316.91,35.42,320.52,48,320.11,61c-.34,5.78,2.8,10.71,5.83,15.21a90.35,90.35,0,0,0,9.17-34c.33-5.69,2.7-10.86,4.59-16.09A32.73,32.73,0,0,0,337.48,0h6.73M302.66,0c.61,10.67,1.72,21.29,2.74,31.93,1.23,11.8.82,23.7,1.92,35.52,1,11,2.39,21.92,4.38,32.75s1.73,22.22,5.61,32.67c2.26,7.75,6.88,15.3,5.66,23.7-1.91,13.75-6,27.06-7.45,40.91-3.81,20.81-9,41.34-13.23,62.07-5.91,17.23-10.09,35-14.15,52.8-1.93,9.87-2.14,20-3.14,30-1.19,15.48-3.56,30.91-2.94,46.49-.56,22.64,2.13,45.25.65,67.88-1.18,16.55-.78,33.15-.89,49.73,0,12.94-1.71,25.8-1.35,38.74.32,12-1,24-.3,36H276.9c1.25-11.5.38-23.06.63-34.59.11-38.77,4.3-77.45,2.69-116.24-.11-23.08-.57-46.16.28-69.22,1-16.66,3.07-33.22,5.19-49.77,1.07-8.79,4.32-17,6-25.69,2.12-11,5.16-21.86,6.83-33,1.49-10,5.29-19.34,7.75-29.08,2.83-11.15,5.32-22.46,6.19-34,.71-9.81,4.33-19.16,4.22-29.07.28-8.32-1.67-16.44-3.41-24.49-2.22-10.17-1.75-20.71-3.58-31a403.52,403.52,0,0,1-6.18-51.4c-.33-17.92-2.09-35.74-2.88-53.63h2.08m-6.22,0c-3.35,24.37.61,49.15-2.51,73.55-1.47,11.9-4.43,23.69-4.06,35.78.21,7.89,1.16,15.83.09,23.71-2.62,19.22-5.28,38.48-6.85,57.83-.42,15.65-1.53,31.26-1.92,46.9-1,14.82-2.86,29.6-2.1,44.47.93,23.15-2.39,46.11-3.94,69.14.18,26.18-.26,52.37.61,78.55,1.6,19.25,3.52,38.64,1.32,57.93-2.13,15.84-4.46,31.67-6.07,47.58-1.11,15.24-2.8,30.41-3.77,45.66H266c.44-10.36.19-20.74.65-31.1.45-11.41,3-22.58,3.54-34,1.2-13.21,1-26.54,2.77-39.7,2.13-16.19.91-32.56.56-48.81-1.3-20-.79-40-1.65-59.92-.15-16,1.12-32,.91-48-.54-19.11,5.19-37.65,5.15-56.73.51-15.68-.29-31.35-.36-47,0-9.82,1.69-19.5,2.5-29.25,1.34-26.7,1.77-53.46,4.06-80.11,1.11-24.24,5.11-48.2,7.66-72.29.78-11.39.05-22.82.48-34.22h4.22M285.65,0c-.66,14.69,2.25,29.44-.16,44-3.11,21.4-4.11,43.24-10.07,64.09-1.69-15.9,1.83-31.6,3.58-47.3,1.23-11.24,4.39-22.19,4.78-33.52.36-9.1.62-18.19.58-27.3h1.28m-5.29,0c-3,16.33-3.16,33-5.74,49.42-1.27,8-2.62,16-3.1,24.07-.77,18.87-1.87,37.73-1.9,56.63-2.09,26.68-.82,53.45-1.26,80.18-.33,17.56,1.87,35,2.63,52.51.38,8.79-.54,17.53-.91,26.29-.56,11.17.16,22.48-2.22,33.47-.73-15.29-2.37-30.56-1.77-45.88.49-18.93-1.57-37.79-1.37-56.7,0-15.5-.26-31-.61-46.49-.21-11.26.82-22.5.58-33.76-.25-17.61,2.12-35.1,2.88-52.67.75-29.25,6.35-58,9.1-87.07h3.69m-17.1,0c-.38,12.45-.37,24.9-.22,37.37-.62,24.95-3.78,49.74-5.05,74.66-.08,20.77-1.57,41.51-1.14,62.3-.48,24.66-.3,49.33-.91,74,.33,17.83,2.39,35.59,2.94,53.42.5,21.21,3.22,42.3,3.12,63.53,2.06,40.08.77,80.25,1.24,120.37.44,13.17-2,26.26-.93,39.42,1.27,18.65.9,37.37.89,56h-4.91a108.09,108.09,0,0,0,.42-14.62c-.87-13.56-.42-27.16-1-40.74-.54-15.7,1.67-31.32,1.56-47,.05-14.78.17-29.55.48-44.33,1.18-22.58-.87-45.15-.54-67.74.42-17.15-2.51-34.13-2.83-51.26-.65-20.74-3-41.43-2.61-62.19.15-39.79,2.06-79.57.81-119.35-.36-10.07.85-20.09,1.06-30.15C257,69.15,261.11,34.59,258.43,0h4.83m-12.8,0c2.18,29.06-1.06,58.12-1.87,87.17-.07,7.9-.34,15.79-.77,23.67-.44,8.29.44,16.58.15,24.86-.46,15.19-2,30.34-2.1,45.55-.11,14.76-1.38,29.5-1.36,44.26-.09,26.32,0,52.62.55,78.92,1.59,22.14.79,44.34,1.76,66.51,1,21.15.62,42.34.81,63.51-.05,14.49,1.35,29,.34,43.46-1.3,18.26-.36,36.58.18,54.87.09,16.13,2.45,32.17,2,48.33h-2.72c0-33.68-2.58-67.34-1.47-101-.13-30,0-60-.16-90-1.14-23.47-2.17-46.95-3.5-70.4.17-30.92-.62-61.85,0-92.77.36-15.73-.48-31.49.7-47.19C245.66,119.85,248.16,60,247.59,0h2.86m-9.72,0c-.58,17.06,1.2,34.06.5,51.12,1.31,15.75-.4,31.45-2,47.1-1.35,12.41-1,24.93-1.91,37.37-1.07,13.85-.34,27.77-1.26,41.63-1.34,32.21-2.39,64.46-1.55,96.7,1.15,16.26.35,32.57,1.63,48.83.81,23.82.63,47.68,1.1,71.52,1.06,15.69.75,31.41.62,47.11.15,46.59-.2,93.23,2.87,139.73h-4.09c.42-17.1-.73-34.16-1.27-51.25-.57-13.2-2.57-26.35-1.93-39.58.61-12.61.7-25.22,1.68-37.81,1.28-17.54-1.23-35-.92-52.61.38-19.13-1.44-38.21-.93-57.35-.16-24.71-2.17-49.37-1.58-74.09.45-26.73-1.12-53.53,1.09-80.21q.26-22.14,1-44.29c-.24-16.3,1.84-32.47,2.08-48.76,1.91-31.68,1.5-63.45.75-95.16h4.1M228.88,0c-.05,19.86.19,39.71-.17,59.56-1,12.55-2.33,25.09-3.25,37.66-1-9.33-.22-18.69-.48-28-.64-23.07.63-46.12,0-69.18h3.93M218,0c-.13,9.57.08,19.16.75,28.72,1.35,23.15,1.75,46.36,3.52,69.5,1.56,15.18.66,30.47,1.44,45.69-.05,19,.21,38-1.07,57-.66,10.56.49,21.11.32,31.68-.12,23.05-1.73,46.13,0,69.15,1.1,28.54,3.44,57,3.17,85.63-.12,15.79,1.47,31.51,2,47.26.55,14.36-2.14,28.66-1.19,43,1.2,19.26-.73,38.58.67,57.82,1.53,15.16.85,30.41,1.19,45.62H225c.34-19.4-1.37-38.74-1.43-58.12-1-18.68-2.53-37.45-.67-56.13,1.8-26.44-.48-52.92-1.6-79.35-.48-19.45.44-39-1.18-58.37-.66-8.69-.34-17.42-.33-26.12.25-23.46-2.06-46.85-2.16-70.3.91-27.28,2.09-54.58,2-81.89-.15-18.94.69-37.88-.29-56.81-1.76-31.33-2.75-62.69-4.6-94H218M207.49,0c.26,14.79,2,29.51,1.8,44.33,1,20.71,1.59,41.47,1,62.21-.41,11.05.25,22.12-.29,33.16-1,16.6-.45,33.23-.63,49.85.3,16.6-1,33.19-.49,49.8.37,13.85.32,27.69.37,41.54.18,17.31,2.27,34.52,2.14,51.84-.09,9.93,1.14,19.81,1.34,29.75.2,28.16,1.53,56.3,2.82,84.41.33,9.23-.42,18.43-1.11,27.62-1.22,18.08,2.37,36,2.57,54,.13,17.53-.15,35,.24,52.58h-2.63c.18-14.54-1.47-29-2.2-43.5-.62-9.61-.36-19.29-1.54-28.86-1-8.18-2.65-16.24-3.25-24.46-1.26-14.43,3.49-28.54,2.59-43-1.68-25.76-2.08-51.61-2.51-77.43-1.51-21.75-.89-43.57-1.84-65.35.8-22.51-1.2-45-2-67.47.18-18.25,2.39-36.46,1.89-54.74-.62-14.64-1.18-29.35-.2-44a312.8,312.8,0,0,0,.24-40.46c-1.26-19.26-.2-38.59-1.35-57.85-.75-11.33-1-22.69-.9-34h4m-9.13,0c.48,11,1.47,21.9,1,32.89-.52,13.48-1.16,27-1.12,40.46s-1.37,26.72-1.26,40.11c.34,22.61-.41,45.2,0,67.81.38,16.35-7.21,32.17-4,48.55C196.11,248,195.74,266.61,197,285c2,22.57.5,45.24,1.65,67.84s1.07,45.17.93,67.77c-.21,17.12,1,34.29-.81,51.33a79,79,0,0,0,.56,22.41c3.07,16.77,5.91,33.64,6.9,50.7.29,12,.65,24,1.26,36.05h-5c.07-17-1.07-34-1.8-51-.75-7.73-.37-16.08-4.5-22.9-1.07,9.89.9,19.75.89,29.65,0,14.78,1.25,29.5,1.43,44.28h-2.73c.2-27-1.8-53.89-3.33-80.8-.83-11.79-2-23.59-1.81-35.42q.59-36.67-1.31-73.31c.11-17.57-1.44-35.08-1.53-52.63-1.19-26.11-3.54-52.16-4.5-78.28-.85-10.88,0-22-2.79-32.6-.12,20.57-2.33,41-4.13,61.47-.91,10.92-3.18,21.63-4.89,32.42-2.8,17.86-1.79,36.33-6.67,53.85-2.09,8-5.66,15.74-5.44,24.17.22,8.75,1.85,17.39,1.73,26.15-.09,15.84-.33,31.84,2.51,47.47,4.34,22.16,2.67,44.93,3.1,67.39.17,13.38-.58,26.82,1.16,40.12h-4.09c-3.33-33-1-66.56-6.68-99.38-3.19-17.4-2-35.2-2.37-52.81.29-11.12-1.36-22.45,1.19-33.4,2-9.22,5.33-18.11,6.77-27.46,1.88-13.27,2.69-26.66,4.37-39.95,1.15-9.82,4.21-19.31,4.84-29.21,2.18-30.54,6.44-61,5.93-91.68-.45-9.12-1.4-18.21-1.84-27.34-1.18-24-8-47.19-11.38-70.91-1.42-12.63-3-25.24-4.91-37.79-3.45-23.58-3-47.5-5-71.19h3.81c0,22.46,2.28,44.83,3.44,67.24.6,14.36,2.87,28.57,5.57,42.64,3,12.31,6.39,24.5,9.62,36.75,4.11,17.29,2.17,35.25,3.2,52.87,2.29-9.59,2.43-19.51,2.63-29.33.13-10.7.09-21.43-1.43-32-1.72-12.34-2.24-24.81-2.72-37.25-.17-8.76-5.46-16-7.18-24.42-2.9-13.27-3.28-27-3.69-40.53-.19-12.11-2.65-24-4.27-35.95h3.86c4.49,20.89,3.08,42.42,5.79,63.55.93,10.93,4.6,21.32,6,32.18a60.14,60.14,0,0,0,2.4,9.91c2.91-28.38-2.91-56.56-3.14-84.91-.2-6.93-.77-13.82-1.35-20.73h2.86c1.67,15-.74,30.38,2.45,45.23C185.13,30.33,184.21,15,183,0h3.58c.12,11.51,1,23,.18,34.53-1,32.83.21,65.69-1.06,98.51-.13,13.82,3.12,27.49,2.12,41.34-.14,11-2.67,21.61-4.66,32.29-1.69,8.77,2.39,17.06,3,25.68.83,12.92,1.75,25.86,1.52,38.82-.16,18.5,3.09,36.83,2.69,55.34-.17,18.93.67,37.83,1.26,56.73-.3,16.18,1.32,32.28,1.53,48.43.36,9.8-.12,19.7,2,29.32.74-9.29.7-18.61.83-27.92.09-29.51.67-59.05-1.19-88.51-.52-10.51-.23-21.06-.82-31.57-1.18-22.21,0-44.52-2.34-66.66-1-12.33-3.41-24.67-1.93-37.07,1.09-9.33,3.19-18.54,3.47-28,.74-38.66-1.3-77.43,1.84-116,.85-21.75,1.76-43.51.78-65.28h2.55M111,0c-3.39,15.22-4.71,30.88-8.85,45.92A113,113,0,0,0,97.64,73.4C97,90,95,106.45,93.46,123c-.7,8.38-.89,16.82-2.14,25.17-1.89,11.91-1,24-2.29,36-1.39,13.77-1.28,27.64-3,41.37-1.06,8.37-2.33,17-.42,25.32,4.72,21,6.43,42.55,9.17,63.88,2.94,15.55,6.6,31,8.07,46.79,2.53,15.3,3.31,30.87,6.36,46.08,2.95,14.72,2.84,29.86,3.08,44.84-.19,12.8,1.06,25.75-1.35,38.39-2.09,11.25-4.18,22.48-6.18,33.75C102.39,538,97.65,550.84,95,564.22c-1.14,5.59-1.71,11.29-2.78,16.89H89.52c2-20.48,10.42-39.39,13.61-59.62,3.62-20.92,8.29-42.19,5.74-63.55-.24-18,1.85-36.4-3-53.93-3.66-13.13-2.78-27-5.07-40.34-2-11.93-3.74-23.94-6.91-35.61C90,313.08,87,297.74,87,282.17c-.71-8.91.2-18.32-3.29-26.7A382.66,382.66,0,0,0,86,319.54c3.24,19.66,8.08,39.07,9.93,59,.79,8.55.62,17.16,1.57,25.69a563.11,563.11,0,0,1,3.28,74.4c-.34,14.56-3.09,28.88-5.12,43.24-1.71,12.61-5.85,24.66-8.35,37.1-1.64,7.33-2.37,14.83-3.93,22.18h-2.8c1.15-16,5.94-31.24,9.54-46.7a605.33,605.33,0,0,0,7.49-69.47C99,441.23,95,417.71,93.14,394.16c-1.08-11-1.52-22.11-3.16-33.05-1.47-9.7-1.48-19.63-3.89-29.18a104.52,104.52,0,0,1-3.2-20.64c-.52-9.78-2.94-19.37-2.79-29.19-.15-7.53,1.23-15.22-.83-22.59-1.69,15.34-3.05,30.88-1.75,46.32.29,5.08.22,10.16.62,15.22.59,7.93,3.44,15.45,3.78,23.42.44,8.48,1,17,2.21,25.37,1.22,11.42,4.52,22.57,4.29,34.13-.29,15.79,3.57,31.28,2.87,47.08.32,19.87-1.68,39.63-4.31,59.26-2.05,23.84-9,46.89-10.65,70.8H72.65c.07-9,.34-18.07,2.29-26.87,5.78-27.86,9.15-56.23,11.49-84.61-.08-14,1.36-28-.75-41.92-1.89-22.65-4.39-45.24-6.15-67.91-.5-19.91-4.26-39.6-4-59.56C75,287.8,74.73,275.29,77.11,263c-4.14-3.63-10.31-6-11.54-12.13-2.51-8.58,2.67-16.6,3.72-24.93,1.61-12.47.38-25.1,1.32-37.61.93-18.47.86-37,2-55.43-.22-15.26,2.06-30.54.17-45.76-1.19-10.13-.25-20.3-.05-30.44q.08-28.37.16-56.71h3.47c-1.32,12.22-1,24.53-1.64,36.79-.57,11.82,1,23.58,1.46,35.38.83,22.5,1.2,45.06-.56,67.52-1.61,28.14-1.19,56.37-3,84.51-.53,6.67-2.71,13-4,19.54,2.62-1,5.21-2.14,7.79-3.27,1.76-32.18,2.29-64.42,3.24-96.63,1.22-13.31,1.35-26.69,2.35-40,.61-8.33-.74-16.6-1.14-24.89C80.42,52.63,78,26.25,80.85,0h2.66c-.38,11.15-.87,22.4.83,33.47,2,13.7,1.43,27.57.85,41.34.16,13.37,1.06,26.7.82,40.07-.2,10.17-2.35,20.17-2.66,30.33-.63,24-2.06,47.9-3.12,71.85-.37,9.08-2.05,18.43.7,27.28a29.82,29.82,0,0,0,2.65-10.47c1.76-24.43,3.37-48.9,3.78-73.4C87.7,147,89.61,133.71,91,120.35,92,93,94.93,65.55,93.33,38.12,92.43,25.35,94.74,12.7,95.52,0h4c-1.37,15.66-4.27,31.52-1.29,47.18,4.95-15.26,6.28-31.42,9.1-47.18H111M82,249.41c-2.88-3.09-7.16-1.42-10.48-.21,0,1-.07,2.88-.09,3.83,3.32,3.21,12.13,2.71,10.57-3.63M91.65,0c.09,7.55-.46,15.18-2.74,22.4A73.6,73.6,0,0,1,90.32,0h1.32M68.85,0c-.08,9.88-1.23,19.74-.75,29.64,1.38,21.9.77,43.89-.33,65.78-.41,31.85-.4,63.71-1.75,95.55-.7,16.23.79,33.18-5,48.62a371.29,371.29,0,0,0,3.78-51.4c-.17-11.57,1.55-23.05,1.43-34.62-.42-28.11.41-56.24-.52-84.36C65.16,55,62.73,40.87,64,26.66c.77-8.87.71-17.77.67-26.66h4.19M60.59,0c-1.1,13.82-1.4,27.67-1.44,41.54-.65,19.8-1.22,39.63-.09,59.43.4,16.15.28,32.31.33,48.47.42,16.63-1.6,33.19-1.36,49.84.15,17.67-4.34,35-3,52.71A48.76,48.76,0,0,1,53,232.4c1.51-15.18,2.26-30.42,2.69-45.67.15-8.94,2.22-17.75,1.8-26.7-1.23-21.5.2-43-.48-64.54-.94-20.28.05-40.59.11-60.89A267.54,267.54,0,0,1,59.21,0h1.38M52.65,0C50,23.42,49.78,47,48.85,70.56c.05,20.75.46,41.51.17,62.26-.3,12.11,1.28,24.21.42,36.32-1.26,18.76-1.64,37.56-3.07,56.31a103.46,103.46,0,0,0,1.24,29c3.31,15.94,2.71,32.35,4.17,48.52,1.76,16.56,4,33.06,6.88,49.45,2.49,13.42,1.85,27.13,3,40.68,1.11,15.68,2.31,31.37,2.17,47.1-.34,17.91-.08,35.86-1.85,53.71-1.23,15.8-3.29,31.5-5,47.26-1.27,13.34-6,26.37-4.37,39.93h-3.9a86.77,86.77,0,0,1,2.51-22.4c3.45-13.41,2.46-27.42,4.63-41a323.33,323.33,0,0,0,3.7-58.33c-1.69-35.7-.61-71.57-4.68-107.13-.57-6.7-.86-13.43-2.18-20-5.27-24.27-2.26-49.42-6.09-73.9-3.08-18.13-1.64-36.57-.49-54.8.28-15.72,2.05-31.39,1.55-47.13-.86-30,.59-60-1-89.88-.69-13.42,1.1-26.77,1-40.19,0-8.79.61-17.54,1.35-26.29h3.53M45,0c-1,12.74-2.65,25.42-3.51,38.16-.62,9.42.58,18.83.65,28.25.57,30.44.22,60.88.08,91.3-.91,26.26-2.39,52.49-3.09,78.75a201.91,201.91,0,0,0,.69,30.59c1,10.21,1.07,20.56,3.21,30.62.29-8-.15-16.09,1.19-24,1.14,11.11.9,22.32,1.63,33.47.7,21.28,4.62,42.35,4.23,63.7C50,380.9,50.35,391,51,401.05c.91,23.12.69,46.25.62,69.37-.23,14.32-.28,28.66-1.44,42.93-1.26,16-1.53,32.11-4.36,47.93a101.28,101.28,0,0,0-1.13,19.83H43.34c-.49-13,2.42-25.76,3-38.68,1.32-23.52,3.24-47,2.59-70.62,1.06-29.57.67-59.15-.83-88.69a608.25,608.25,0,0,0-3.9-66.56c-1.51,10.17-.77,20.49-.89,30.74q0,31.92-.16,63.84a118.72,118.72,0,0,1-1.87-16.75c-.58-15.23-1.8-30.45-1.47-45.71.42-21.22-2-42.34-3.19-63.51-.87-13.91-3.47-27.77-2.66-41.76,1.5-31.8,4.31-63.52,4.59-95.36.38-22.9-.74-45.82.56-68.71.57-9.37.7-18.76.71-28.14C39.86,34.05,42.11,17,43.65,0H45m-8,0a304.47,304.47,0,0,1-1.52,34.58c-1.18,11.61-1.06,23.37-3.27,34.84C31.46,46.3,32.16,23.13,31.93,0h5.16M27.7,0a142.44,142.44,0,0,0-.77,24.59c1.24,19.33.4,38.73,1.44,58.07,1.83,21.78,3.9,43.67,2.53,65.54-1,18.39-.13,36.8-.33,55.19-.24,14.32,1.23,28.58,1,42.89-.21,20.79.46,41.59-.22,62.37-.52,16.13,1.51,32.21,1.8,48.33.13,18.47,1.93,36.87,2.58,55.33.93,25.36,3.66,50.58,4.43,75.95,2.46,31-1.2,62-3.21,92.85H31.72c.56-12,1.59-24,.46-36-1.07-27.75.9-55.59-1.22-83.32-.82-17.45-2.18-34.87-2.17-52.33-1.31-22.1-.74-44.25-1.38-66.37C25.75,319.1,27,295,25.72,271c-.56-32.69-1.2-65.39-.85-98.1-.29-26.84,1.63-53.74-.61-80.54C21.68,61.67,22,30.8,22.55,0H27.7M18.21,0c-1.72,15-.92,30.09-1.56,45.13-1.51,23.72,1.3,47.42,2.13,71.1.2,34.15-.58,68.29,0,102.44,1.5,30.84.66,61.75,1.46,92.62,1.16,22.55.87,45.16,1.89,67.73.17,29.11,1.68,58.18,2.8,87.25.25,38.3,2.7,76.54,2.65,114.84H22.54c1.09-19.63-.38-39.29.62-58.93.28-17-1.28-34-1.59-51-1.6-24.9-2.84-49.84-5.08-74.7-1.67-19.88-.89-39.89-2.5-59.77-1.68-21.39.36-42.79,1.72-64.12q.22-63-.82-126c.67-20.3.81-40.59,1.13-60.89.34-13.86-2.74-27.63-1.39-41.51C16,29.54,15.71,14.75,16,0h2.2M8.08,0C6.65,45.16,1.91,90.32,5,135.52c0,14.78.3,29.54,1.38,44.29-.13,18,2.22,36,1.67,54,.32,19.67-1.22,39.27-2.14,58.9-.61,7.1-1.55,14.2-1.19,21.35.74,21,.44,42-.36,62.94-.52,16.37.19,32.77-.45,49.13C3.86,440.46,5.36,454.72,5.26,469c.12,22.17,1.76,44.28,2.57,66.41.24,15.22.15,30.44.13,45.66H2.7c-.32-18.47,1.59-36.88,1.5-55.36.29-18-1.69-35.94-1.56-53.95A116.41,116.41,0,0,0,0,445.95v-41C2.09,392.72.87,380.34,1,368a153,153,0,0,0-1-16.12V301.2c3.58-12.91,2.09-26.47,3.78-39.65,1.64-32.31-.7-64.61-2.29-96.87.08-11,.85-22-1.49-32.82V45.17C2,30.2,1.51,15,2.82,0H8.08M128.51,39.25c3,4.26,4.93,9.12,7,13.86,2.8.77,6,.79,8.4,2.53,5.52,6.64,7.74,15.47,8.72,24,1.1,9.53,4.34,18.69,4.71,28.34-5.45-9.85-4.77-21.69-9-32-1.8-4.39-3.27-9.2-6.59-12.62-2.05-.68-4.25-.53-6.36-1C133,61.15,131,59,128.83,57.23c-2.63,5.51-6.71,10.32-8.16,16.37-2.18,13.89-9.68,25.91-14,39.09-1.3,5-1.8,10.14-2.9,15.18-2.94,13-2,26.59-4.45,39.71-1.88,9.51-1.61,19.26-2.71,28.86-.79,6.56-.34,13.35-2.51,19.68a97.46,97.46,0,0,1,.77-13c.89-7.67.3-15.41.91-23.11,1.16-13.46,3.37-26.83,3.78-40.35A80.59,80.59,0,0,1,102,121.74c1.76-7.14,4.84-14,5.07-21.49q-2.84-1.85-5.67-3.75c2.22-.62,4.44-1.23,6.67-1.81a79.45,79.45,0,0,0,8.13-24.86c1.73-9.8,7-18.72,7.14-28.81.73.25,1.46.5,2.17.76,1-.84,2-1.7,3.06-2.53m172.42,62.33c1.2,10.86.61,21.82.37,32.72-.07,10.85-5.29,20.82-5.19,31.7a205.29,205.29,0,0,1-3.68,41.63c-2.94,14.35-3.93,29.24-9,43-.26-11,1.72-21.75,3.11-32.54,2.13-30.47,5.65-60.8,9.33-91.08.66-15.18-.7-30.6,2.61-45.55,2.1,6.48,1.75,13.41,2.49,20.12m235.35-8.11c3.52,6.12,6.36,12.62,9.87,18.73,5.81,10.27,7.71,22.21,12,33.14,6.8,18,6.38,37.65,8,56.62-.08,13.88,1.16,27.7,1.44,41.58,0,15.29,2.69,30.41,2.49,45.71-.21,4.72,1.18,9.23,2.73,13.59,1.85,4.62.21,9.57-.91,14.15-2.12-2.21-5-4.35-5.08-7.8-.15-4.05,1.14-8,1.73-11.93,1.31-7.31-.09-14.68-.69-22-1.26-12.44-1.59-24.95-1.84-37.43-.22-13-1.76-25.89-2-38.86a259.41,259.41,0,0,0-4-40.48c-1.87-10.24-6.69-19.48-10.32-29.1-2.92-7.33-6.39-15.41-13.52-19.2-5.73-3-11.54,1.55-16.32,4.54-4.22,2.39-5.86,7.32-7.55,11.7-4,10.29-8.28,20.48-13.27,30.3-2,4.25-4.35,8.59-4.64,13.45,0,9,7.37,16.64,5.28,25.87a331.28,331.28,0,0,0-5.61,39.71c-1.77,26.22-3.88,52.44-7,78.52-4,25.07-4.13,50.57-7.09,75.77-1.63,24-3.94,48-5.34,72.11-.61,12-2.58,23.88-3.57,35.86-1.8,27.67-2.78,55.41-5.07,83.06H463c1.83-26.73,3.61-53.49,4-80.3.2-10.42,2.46-20.6,3.4-30.94,1.89-22.19,2.18-44.54,5.09-66.62,3.33-27.7,2.55-55.77,6.24-83.42,3.64-17.38,3.21-35.23,4.68-52.85,2.59-20.92,1.26-42.2,5.11-63,1.12-6.39,3.11-13,1.33-19.45-1.72-6.75-4.84-13.95-1.77-20.84,6.09-15.59,14.56-30.56,16.62-47.57.79-8,3.58-16,9.64-21.35,2.08.44,4.17.87,6.26,1.3a56.24,56.24,0,0,1,7.14-7.43c2.75-.15,4.1,2.86,5.52,4.82m-204.8,39c-1.27,3.32-4.29-.11-4.91-2.13-3.69-6.41-2.49-14.33,1.64-20.14,1.3,7.39,1.41,15,3.27,22.28M139.16,116c5.57,4.83,7.42,12.66,9,19.7-3.06-5.31-5.71-11-9.93-15.47-.8,2.17-1.6,4.34-2.37,6.53-1.52-2.67-2.37-7.47-6.27-6.82-5.29.93-9.37,5.19-12.74,9.28-5.3,6.53-5.44,15.52-6.07,23.63-.52,10.34-3.78,20.24-4.38,30.58-.91,16-4.35,31.7-6,47.62-3.16,16.09.65,32.31,1.26,48.44,0,7.3,2.88,14,4.86,20.88,3.29,15.77,6.6,31.57,11,47.07,2.66,9.75,3.2,20,6,29.68,2.45,10.57,4.95,21.18,9.4,31.08,6.69-5.91,11.27-13.88,15.73-21.64,3.76-6.35.67-14.08,2.31-21a293.81,293.81,0,0,0,5.25-32c1.37-12.49,8.1-23.54,9.26-36.07,1.08-10.09,1-20.27,1.15-30.41.09-22.15,2.84-44.36.44-66.48-1-14.29-2.31-28.7-1.3-43,1.71,7.33.25,14.94.91,22.4.09,12.59,4.35,24.68,4.09,37.29-.15,9.88-.4,19.77-.91,29.65-.93,16.85-.26,33.77-1.83,50.6C166.8,312,159,324.93,158,339.53c-1,13.23-2.88,26.36-3.21,39.64-.12,9.77-4.17,18.87-4.67,28.6-.3,4.46-.7,8.9-1.42,13.33-1.51-5.74-2-11.68-3-17.5a65,65,0,0,0-5.56,16.77c-1.55-2.72-3-5.76-5.74-7.34-2.18-1.77-5.44-2.81-6-6-4.39-18.19-7.57-36.72-12.57-54.76-3.41-13.7-5.16-27.88-9.71-41.27-.17,15.63,2.49,31.07,6.13,46.17,4.31,28.6,8.8,57.17,13.12,85.77a58,58,0,0,1-.24,21.17c-4.34,25.14-7.31,50.63-14.36,75.16-3.22,14.2-8.8,27.64-11.89,41.87H96.16c2.26-13.45,4.56-26.91,8.48-40,5.83-23.69,13.72-47.32,13-72.11-.82-25.47-.12-51.21-4.78-76.35-2.08-16-2.94-32.16-6-48-3.94-19.41-3.68-39.43-7.2-58.91a143.72,143.72,0,0,1-2-20.21c-.29-8.62-1.64-17.25-.68-25.87,2.76-19.88,5.48-39.76,7.7-59.73.87-7.47,2.84-14.76,3.44-22.28.55-6.66.5-13.43,2.38-19.88C112.82,129.31,118,122,124.12,116c4-4.1,10.59-2.52,15,0M307.58,127.1c2.35,12.52-1.16,25-.87,37.56-.61,33.47-10.74,65.47-17.29,97.94-1.91,8.44-3.17,17.07-5.91,25.29a67,67,0,0,1,1-16.52c5.86-28.32,12-56.56,17.83-84.88,2.8-13.13.91-26.69,3.12-39.89,1.07-6.45,1-13,2.08-19.51m-177.1,2.09c4.26,1.92,10.5.87,12.41,6.38,3.27,7.94,2.7,17,6.31,24.9-2.73-3.71-6.23-7.44-6.12-12.47,0-4.1-.91-8.14-4.35-10.53-2.47.6-5.16,1.85-7.66.62-2.51-.51-5.5-3.27-7.8-.93-7.57,6-4.46,17-7.66,25.2-4.83,13.32-4,27.78-6.59,41.58-3,16.4-3.23,33.19-6.75,49.49-2.91-6-.85-12.94-.07-19.25,3.93-21.47,5.23-43.38,9.54-64.77,1.44-8,.79-16.15,2-24.14.85-6.57,5.09-12,9.6-16.31,2-2.46,4.84-.32,7.13.22M547.23,149.8a202.67,202.67,0,0,1,6.44,19.43c3.45,15.51,2.88,31.53,4,47.32,1,12.77.11,25.64,1.38,38.39,1.07,13,.79,26.21,4,38.92,2.74,10.11.37,21.17,4.81,30.83,4.15,9,3.81,19.23,5.38,28.9,4.22,28.77,4.66,57.92,5.4,86.93-.9,22,.58,43.92.77,65.89.36,12,1.56,23.95,1.07,36-.56,12.91,0,25.86-1.16,38.74h-2.8c-.16-19.38,1.19-38.74,1.5-58.09-1.23-22.12-1.63-44.26-1.63-66.41.82-38-2.42-76-7.42-113.57-1.26-8.87-4.93-17.2-5.36-26.21-.38-7-.92-14-2.68-20.74-3.17-12.41-3.11-25.33-4.88-38-1.32-9.31-.85-18.76-2.2-28.07-3-23.31-.17-47.71-8.25-70.12-1.72-4.81-3-10.24-6.87-13.75a6.37,6.37,0,0,0-9.78,1.58,165.33,165.33,0,0,0-10.29,20.79q2.56,4.92,4.95,9.93c-1.9,4.18-5.26,8.29-4.48,13.21.56,5.26,1.73,10.54.89,15.86-2.08,14.25-6.75,27.89-10.81,41.62-3,9.88-3.55,20.27-5.09,30.44q-2.42,16.31-4.58,32.67c-3,20.6-4,41.44-6.73,62.08C491,394.63,487.31,414.67,486,435c-1.26,17.39-4.37,34.58-5.71,52-.66,17.65-1.5,35.34-4,52.84-2,13.67-2.32,27.51-2.45,41.31h-3.07c-.45-18.18,1.27-36.32,3.64-54.31,2.29-17.46,1.53-35.18,4.06-52.62,2.67-17.83,3.36-35.88,5.41-53.78,1-8.22,1.4-16.49,1.85-24.77,2-25.78,5.75-51.34,8.19-77.07,1.19-10,3.36-19.88,4.14-30a350.48,350.48,0,0,1,6.19-47.6c3-12.48,7.77-24.34,11.26-36.64,1.31-5.45,2.69-11.69.09-17-3.35-1.55-7.14-1.6-10.49-3.18-5-5-5.82-14.94.12-19.62,3.56-4.15,8.84-1.37,13.08-.33,2.26-7.26,2.67-15,5.2-22.19,1.44-4.58,6.72-5.55,10.73-5.11,6.4.9,10.78,6.89,13,12.81m-26,31.08c-.53-6.06-7.74-6.13-10.86-2.19.68,1.52,1,3.54,2.77,4.18,2.8,1.48,5.56-1.05,8.09-2M160.67,153.4c-2,1.55-4,3.1-6,4.61a29.12,29.12,0,0,1-1.14-10.2,7.4,7.4,0,0,1,7.18,5.59M134.5,151c4.78,7.25,9.79,14.54,12.71,22.87,2.16,8.74.13,17.86.85,26.77,1.43,19.8,2.24,39.64,3.76,59.44.66,8.79-2,17.25-4.5,25.49-2.29,7.18-2.2,15.07-5.52,21.89-1.91,4.14-3.88,8.23-5.85,12.34-1.68-.36-3.91.26-5.16-1.3-3.77-4.4-5.57-10.14-7.83-15.46-2.37-6.21-5.21-12.23-7.09-18.62-1.56-6.64-1.68-13.56-1.44-20.37,2.08,5.46,2.21,11.5,4.52,16.89,3.92,9,2.65,20.1,9.72,27.53,4.55-1.7,6-6.9,7.14-11.3,2.36-11.14,6.15-21.85,8.33-33,3.06-9.77,3.43-20.12,3.66-30.3.08-9.62-2.69-18.87-4.21-28.27a38.91,38.91,0,0,0-3.85-11.43c2-2.06,5.13-3.94,4.48-7.35-.49-6.93-5.21-12.37-7.08-18.87-1.89-4.91-2.35-12.08-8.44-13.19-.38,4-.16,8.12-1.23,12-2.35,3.46-5.86,6.12-7.28,10.24-3.4,9.52-2.51,19.87-2,29.8a132.11,132.11,0,0,1-2.55,25.8c-1.57-6.46-1.26-13.16-1.43-19.77-.08-11.44-.3-22.91.58-34.34.38-9.39,4.7-18.21,10.45-25.22,2.17-3.11,6.06-2.42,9.22-2.27m26,24.27c1.86,7,5.05,13.86,4.1,21.29-.09,17-.21,34.09-1.59,51.08-.17,12.94-.05,25.89-.45,38.82.22,10.53-5.3,19.77-9.13,29.14-5.12,10.1-5.34,22-10.17,32.17-1.51,3.4-6.09,3.85-7.32,7.43-1.43,4-2.58,8.09-4.75,11.73-4-8.88-4.27-19-8.32-27.91-4.33-9.78-8.39-19.81-10.28-30.47,5.13,9,8,19.4,14.6,27.45,3.48,3.47,7.78-1.45,11-3.09,5.91-3.16,7.2-10.39,10-16,4.48-10.3,11.14-20.13,11.64-31.8.87-16.51-.73-33.07.73-49.56,1.43-13.91.79-27.91.86-41.87,0-10.51-5.78-19.49-9.57-28.85,3.06,3.26,7.54,5.67,8.61,10.46m-21.6,43.32c1,7.17,5.63,13.38,5.41,20.8.3,7.22-3.4,13.5-6.51,19.62-2.74,5.05-2.5,11.07-4.27,16.45-1.08,1.56-3.76,3.35-5.24,1.31a39.31,39.31,0,0,1-7.63-10.06c-1.44-6.24-.28-12.74-.73-19.08-1.68-17.66,4.71-34.81,3.93-52.47-.79-5.73,3.1-10.31,5.44-15.07,6.27,11.69,7.9,25.4,9.6,38.49m-7.58-15.26c-2.06,2.25-4.12,4.68-5,7.73a61.66,61.66,0,0,0-2.3,28.35c.49,5.22,5,8.44,7.32,12.78a88.59,88.59,0,0,1,6.28-17.11c.15-11-3.9-21.24-6.28-31.75m326.48,9.75c.4,34.59.09,69.17,0,103.76-2,31.78-2.63,63.65-2.94,95.5-.67,14.75-1.36,29.5-1,44.28-.22,30,.32,60-.49,89.93-.17,11.54,0,23.06.17,34.59H450c.26-9.7,0-19.4.09-29.1,2.18-40.55.82-81.2,1.43-121.8.52-10.61,1-21.22,1.28-31.84.63-14.71-.69-29.43.09-44.14.69-12,1.35-24,2.2-35.95,1.16-16.6-.08-33.23.83-49.84.28-24.1.33-48.2,1.15-72.28a138.34,138.34,0,0,1,.79,16.88M337.89,264.93c2.7.5,6.07.19,7.9,2.78,6.11,7.75,8.27,17.75,11.51,27,2.76,7.68,9.56,13,11.89,20.85,1.38,5.13-1.46,9.73-5.28,12.65,1.08-3.5,3.52-7.09,2.18-10.87-2.06-7.6-8.08-12.78-13.23-18.13-3.28-3.26-4.76-7.86-7.43-11.58-3.11-2.6-7-3.89-10.6-5.55s-7.92-3.38-11.42-.58c-4.33,3.43-6.68,8.79-10.11,13.09-8.21,10.57-11,24.35-12.91,37.48-1.35,20.75-1.16,41.59-3.15,62.31-1.8,16.62-.93,33.54-4.33,50-1.16-9.21.23-18.58-.25-27.87-.46-15.48,2.24-30.75,3.16-46.16,1.49-13.63.25-27.41,1.9-41C300.27,310.52,308,293,318.1,277.43c5-7.73,6.71-17.1,10.38-25.49l2.05-.33c2.9,4.16,4.67,9,7.35,13.32M69.81,275.29c1.13,25.14,1.91,50.34,5,75.32,1.47,28.58,4,57.1,6.67,85.58.11,15.81,1,31.75-1.3,47.46-2.47,20-4.31,40.08-7.55,60a193,193,0,0,0-3.94,37.5H64.46c.6-15.15,4.43-29.84,6.4-44.8,2.13-16,3.29-32.2,5.32-48.25a324.65,324.65,0,0,0,1.4-58.82c-2-22.71-4.66-45.38-4.89-68.21-1.91-25.79-3.45-51.62-3.88-77.48-.24-9.53-2.45-18.8-4.84-27.95a36.12,36.12,0,0,1,5.83,19.69m470.85-14.82c4,6.43,5.75,14.1,7.14,21.57,1.63,10.67,4.35,21.17,4.87,32,.57,12.26,4.56,23.94,8.88,35.23,4.92,13,6.28,27,7.13,40.86.73,12.94,2.53,25.8,2.66,38.78.25,24.43-.45,48.91,1.32,73.29.07,14.79,2.1,29.51,1.61,44.32q-.42,17.29-.4,34.59h-2c.08-10.25-.18-20.52.49-30.75,1-14.7-1-29.35-1.15-44-1.48-24.37-.83-48.8-1.89-73.18-.05-14.35-1.83-28.6-2.14-42.95-1.15-14.14-3.1-28.56-8.88-41.56-6.23-13.86-7.66-29.28-10.66-44.09-1.3-9.73-3.27-19.87-9.64-27.48-1.69-2.91-6.38-2.16-7.63.83-2.82,5.42-4.87,11.28-8.24,16.4-4.07,6.36-6,13.86-7.43,21.29C508,350,501.45,384.4,497.31,419.23c-2,14.85-2.63,29.86-4.88,44.66-1.92,12.26-1.71,24.7-2.66,37-1.61,16.55-3.88,33-6,49.5a111,111,0,0,0,0,30.69h-3.31c-.33-8.71-1.27-17.47-.18-26.16,2-16.31,4.26-32.58,6.14-48.9,1.11-17.21,1-34.56,3.68-51.62,2.9-18.1,3.33-36.5,6-54.62,4-26.83,6.93-53.91,13.2-80.31,2.09-9.42,3.66-19,5.85-28.36,2.21-10.29,8-19.09,12.69-28.29,1.93-5,9.79-7.42,12.87-2.37M60.49,269.93c1.77,20.73,3.43,41.47,5.76,62.12,2.65,24.73,2.18,49.63,4.39,74.38a457.06,457.06,0,0,1,1.67,63.83C70,500.1,68.19,530.1,62.57,559.53a121.57,121.57,0,0,0-1.93,21.58h-2c.91-15.92,3.72-31.6,6.07-47.33,2.77-15.44,3.26-31.17,4.54-46.79,1.8-20.23,1.28-40.57,1-60.85-1.38-21.65-3.49-43.29-3.73-65-.2-13.84-1.77-27.59-3.25-41.33-1.42-12.91-1.26-26-3.72-38.81C58,273.07,56.6,265.07,57,257a45.18,45.18,0,0,1,3.46,13m274.87,19.91c6.87,6.31,9.84,16.39,17.91,21.42,3,2.34,7.62,4,8.06,8.43-.25,7.26-8.85,10.76-9.3,17.88,1.6,8.77,5.12,17,7.12,25.75,3.43,12.7,3.17,26,5,39,1.07,9.44,3.89,18.54,4.83,28,.56,5.67,1.3,11.33,2.33,16.95,2,10.83,2.33,21.9,2.9,32.92.32,7.49,1.92,14.91,1.35,22.46-3-9.31-1.68-19.41-4.19-28.88-2.24-17.67-3.94-35.46-7.8-52.85-4-16.73-3.37-34.19-7.06-51-1.93-7.87-7.06-14.39-8.9-22.31-2.1-7.8-.58-15.92-.65-23.88a34.27,34.27,0,0,0-6.14-18.89c-3.47-3.68-8.25-5.45-12.69-7.5-7.34,6.27-15.54,13.64-16.77,24.1-1.14,8.59-1.47,17.27-2.09,25.9-4,24.38-3.52,49.56-10.05,73.5-1.36-8.51,1.16-16.82,2.42-25.14,2.47-20.66,3.28-41.49,4.13-62.28,1.53-15.76,7.33-31.63,18.64-42.55,2.91-2.45,7.84-3.93,10.94-1.05m-3.53,19.45a18.16,18.16,0,0,1,10.73,17.2c.87,7.58-3.9,14.93-1.48,22.41,2.51,8.69,8.52,15.73,11,24.49,3.77,10.93,3.17,22.77,6,34,3.69,14.86,5.85,30.07,8.06,45.23,1,11.17,3.43,22.25,2.82,33.5-2.61-7.22-2.57-15-3.68-22.55-1-7.93-3.48-15.54-4.26-23.49a143.6,143.6,0,0,0-4.47-25.54c-3.27-11.11-3.2-23.31-9-33.52-3-6.09-7-13.41-14.39-13.66-4.79.65-7.65,5.53-9.8,9.6-2.58,5.48-7.12,9.92-8.49,16-3.48,15.4-6.3,31.08-11.71,45.92a21.12,21.12,0,0,1-4.18,7c1.22-7,4.39-13.39,6.18-20.23C308,415,308.8,403.86,311,393.05a248.75,248.75,0,0,0,4.11-26.18c.38-5.37,3.94-9.91,3.84-15.36,0-6-.74-11.94-.08-17.89.73-6.36,0-13.25,3.12-19a10,10,0,0,1,9.83-5.31m2.35,6.53c-4.35-1.75-8.66,2.85-9.93,6.83-.13,7.69,3.48,14.78,5.3,22.09,4.1-4.12,9.83-8.59,9-15.3-.6-4.66-.77-10.34-4.41-13.63m27.59,13.1c1.47,10.61,5.3,20.7,6.42,31.39,1.61,22,4.87,43.95,6,66.05-4-15.22-4.86-31-7.34-46.5-2.57-10.13-1-20.77-3.41-30.91-1-5.4-3.29-10.42-4.5-15.75-.89-2.25,1.63-3.08,2.86-4.29m-184.91,2.79c.54,7.51,0,15-.62,22.51-2,29.08,2.49,58.07,2.2,87.15-.07,16.78,2.18,33.46,3.6,50.16,2.22,21,2.67,42.2,4,63.3.52,8.74.37,17.51.3,26.27h-2.83c-.94-8.73-1.81-17.47-2.2-26.25C181.18,526.4,179,498,178,469.59c-.65-17.24-2.2-34.45-2-51.72.3-14.4-3.53-28.5-2.79-42.92s.85-29.06,3.67-43.24m367,27.83c4.71,5.41,7.13,12.56,8.93,19.54,2.35,10.86,3.41,22,4.52,33.05,2.82,23.92,4.07,48,4.56,72.13,0,12.48,1.88,24.86,1.65,37.36-.24,11.56,1.41,23.08.4,34.63a236.14,236.14,0,0,0-.5,24.86h-2.41c0-16.71-.45-33.46.61-50.14,1-15.15-1.71-30.18-2-45.3a627.59,627.59,0,0,0-4.95-72.39c-2-15.37-3.72-31.09-9.51-45.51-1.8-5.27-8.37-6.06-12.87-4.77-5.15,3.41-6.73,10.13-9,15.66a249.88,249.88,0,0,0-15.52,69.57c-1.76,14.33-3,28.76-5.12,43-1.32,8.69-1.51,17.5-1.68,26.28-.26,13.28-3.84,26.11-5.71,39.17-1.24,8.19.63,16.35,1.93,24.39h-4.06c-1.46-6.76-2.46-13.82-1.15-20.7,1.34-7,3.16-14,3.44-21.18.41-10.13,3.06-20,3.41-30.09.54-14,2.71-27.77,5.15-41.48,1.88-10.32,2.39-20.81,3.29-31.24,1.13-12.92,4.88-25.34,7.21-38a103.65,103.65,0,0,1,14-36.54c3.2-5.15,11.06-6.95,15.36-2.28m43,46c.83,7.77.46,15.59.41,23.39-.16,17.16-.11,34.31-.49,51.47-.19,7.83.77,15.68.08,23.49-1.55-4.53-.58-9.42-1.1-14.1-1.4-14.25-1.27-28.6-2.49-42.86.07-16.63-.87-33.22-.94-49.84.28-13-.69-26-1.56-38.95,5.75,15.08,4.21,31.6,6.08,47.39m-419.44-17a335.14,335.14,0,0,1,3.28,55.57c-.75,22.79,6,45,5,67.81-.44,12.51,1.38,24.9,3,37.26,1.43,10.57,1.06,21.28,1.26,31.92h-2.55c-2-16.75-2.9-33.63-4.93-50.39-1.27-10.46,1.47-20.85.68-31.3-.74-11.11-2.46-22.11-3.45-33.19-1-14.21-1.55-28.46-2.21-42.68-.52-11.64-3.77-23.58-.05-35m172.6,16.77c4,9.42,8.48,18.82,10.52,29,1.68,8.27,4.26,16.33,5.7,24.66,2.38,14.36,7.68,28,9.5,42.49,2.66,19,7.66,37.58,9.29,56.73.9,7.69,2.24,15.3,3.62,22.91h-4.41C372,573.63,371,565.78,370.08,558c-1.3-11.4-4.76-22.35-7.92-33.29-4.62-15.79-4.17-32.47-6.32-48.67-1.44-11.82-8.23-21.92-10.11-33.62-1.22-7.6-4.52-15.7-11.42-19.34-3.76-.28-7.29,1.46-10.81,2.59-1.16,4.72-2.37,9.67-5.65,13.35-7.47,8.19-9.11,19.83-14.07,29.55-5.15,11.84-5.56,25.06-6.12,37.83-.26,10.17-1.56,20.3-1.26,30.48.77,14.78-2.17,29.54.08,44.26h-4.25c-.37-26.75-2.94-53.88,2.88-80.22,2.74-11.3,2.25-23.41,7-34.15a173.36,173.36,0,0,0,7.06-19c2.14-7,7.47-12.52,8.6-19.91,1-4.59.75-9.93,4.33-13.38s3.69-8.48,5.16-12.88c.85-2.8,3.14-4.71,4.93-6.82,3.72,2.5,6.2,6.35,7.91,10.53m198.44,10.08c5.54,15.4,6.54,31.93,9.17,48,1.61,10,.69,20.24,3.06,30.09,1,4.43,2.26,8.84,2.87,13.38,2.83,24.59,5.46,49.44,3.2,74.2h-2.66c1.11-29.83,0-60-7-89.07-1.79-9.69-1.39-19.63-2.75-29.37-1.22-8.56-2-17.2-3.11-25.77-1.06-6-2-12.76-6.81-16.85-2.57,2.19-5.07,4.7-6,8.14-3.11,9.7-6.84,19.42-7.25,29.79-.33,11-5.09,21.09-6.51,31.91-2.47,17.6-4.88,35.23-7.84,52.74a105,105,0,0,0-1.6,24.84l6-.76c.49-9.59.67-19.27,3.17-28.58,3.62-13.79,4.78-28.36,10.7-41.41,3-6.31,5.17-13.35,10.21-18.26a70.57,70.57,0,0,1,5.75,16.84c1.91,8.54,5.4,16.7,6,25.54a122.6,122.6,0,0,0,2.83,20.71c3.8,13-.62,26.37.32,39.6h-6.56c.73-13.85.2-27.71-.11-41.58-.24-8.58-1.1-17.42-4.75-25.24-1-1.61-1.64-4.59-4-3.56-3.27,3.18-5.65,7.21-8.19,11-6.51,9.63-6.51,21.9-9.7,32.86-2.51,8.58-2.62,17.6-2.22,26.48h-15.2c3.2-8.63,1.85-17.77,1.73-26.7,1.91-12,4.91-23.83,6.52-35.91,3.41-16,3.15-32.6,8.06-48.22,4.67-15.66,3-33.21,11.28-47.66,2.32-4.46,7.25-5.78,11.51-7.21M145,421.76a87,87,0,0,1,.3,18.18l-3.76-.1c.29-6.16.81-12.47,3.45-18.08M15.32,441.08c.42,19,1.88,38,2,57,.33,12.92,1.27,25.82,1.38,38.76.49,14.75-.54,29.5-.42,44.26H15.89c.15-18.91-.11-37.83.13-56.73.33-16.23-2.92-32.24-2.75-48.44.16-11.64-.22-23.41,2-34.87M337.3,462a125.3,125.3,0,0,1,13.59,41.22c1,8.83.11,17.89,2.37,26.56A142.07,142.07,0,0,1,357.32,552a171.62,171.62,0,0,0,6.38,29.08h-9.56a207.54,207.54,0,0,1-.93-22.21c0-10.77-3.72-20.94-5.59-31.39-2.32-11.21-2.5-22.87-6.09-33.77-2.46-7.92-6.67-15.05-11.34-21.74-2.62,5.49-5.52,11-9.87,15.23-3.84,4-7.8,8.26-9,14-2.46,11.26-5.75,22.5-5.74,34.16.42,15.33-2.2,30.45-2.88,45.73h-2.3c.07-22.81-1.09-45.88,3.21-68.39,1.48-7.65,1.65-15.51,3.17-23.13,1.67-8.29,7.08-14.93,9.62-22.86,1.22-2.85,1.76-6.28,4-8.44,5.3-3.33,13.81-2.59,16.8,3.74M146.13,483.57c3,8,4.83,16.38,6.59,24.74,1.87,13.41,2.59,27,4,40.43,1.13,10.76.62,21.6,1.54,32.37h-3.2c-1.3-21.43-2.95-42.87-6.61-64a24,24,0,0,0-9.66-15.41c-6.61,5.28-5.81,14.68-7.08,22.37-1,9.67-6.1,18-9.88,26.7-4.36,9.84-7.35,20.27-11.14,30.36h-3.93c3-14,9.13-26.9,13.32-40.5,6-16.16,8.52-33.37,13-50,1.1-3.56,2.35-7.39,5.27-9.8a5.13,5.13,0,0,1,7.74,2.74M586,543.78c1,12.42,1.35,24.9,2.39,37.33h-5.05c.09-20.39-.08-40.8.4-61.18,2.09,7.75,1.34,15.91,2.26,23.85m-249.84,9.57c3.69,8.92,3.08,19.18,7.63,27.75h-7.57c-4.44-8.63-5-18.84-9.88-27.27a43,43,0,0,1-7.65,13.38c-3.36,3.78-3.47,9.13-4.42,13.89h-5.05c1.76-14.51,6.65-28.25,10.2-42.34,1.4-3.76,3.49-10,8.33-9,5.69,6.31,5.22,15.87,8.4,23.55Z"
                  fill="#4ba2de"/>
        </g>
    </g>
</svg>